<?xml version="1.0" encoding="UTF-8"?>
<svg id="Calque_1" data-name="Calque 1" xmlns="http://www.w3.org/2000/svg" xmlns:xlink="http://www.w3.org/1999/xlink" viewBox="0 0 1218.61 1116">
  <defs>
    <style>
      .cls-1 {
        fill: #264de4;
      }

      .cls-2 {
        fill: #fff;
      }

      .cls-3 {
        fill: #f16529;
      }

      .cls-4 {
        fill: #d9ec8f;
      }

      .cls-5 {
        fill: #ffda3e;
      }

      .cls-6 {
        clip-path: url(#clippath-2);
      }

      .cls-7 {
        fill: #131313;
      }

      .cls-8 {
        fill: #fa0c00;
      }

      .cls-9 {
        fill: #d6ba32;
      }

      .cls-10 {
        clip-path: url(#clippath-1);
      }

      .cls-11 {
        fill: #ec8f93;
      }

      .cls-12 {
        fill: #ecd18f;
      }

      .cls-13 {
        fill: #2965f1;
      }

      .cls-14 {
        fill: #101010;
        isolation: isolate;
        opacity: .85;
      }

      .cls-15 {
        clip-path: url(#clippath);
      }

      .cls-16 {
        fill: #ebebeb;
      }

      .cls-17 {
        fill: none;
      }

      .cls-18 {
        fill: #e44d26;
      }

      .cls-19 {
        fill: red;
      }
    </style>
    <clipPath id="clippath">
      <rect class="cls-17" x="992.59" y="580.97" width="103.42" height="111.98"/>
    </clipPath>
    <clipPath id="clippath-1">
      <rect class="cls-17" x="492.07" y="544.99" width="125.2" height="177.3"/>
    </clipPath>
    <clipPath id="clippath-2">
      <rect class="cls-17" x="745.77" y="539.99" width="127.53" height="181.19"/>
    </clipPath>
  </defs>
  <path class="cls-4" d="m1218.61,287c-79.25,0-143.5-64.25-143.5-143.5S1139.36,0,1218.61,0"/>
  <path d="m892.15,153.73h6.43c-.66,10.45-3.46,12.26-11.49,12.26-9.73,0-11.71-2.97-11.71-21.01,0-15.95,1.98-20.95,11.83-20.95,8.19,0,10.67,1.98,11.38,11.61h-6.38c0-4.84-1.7-5.34-5.11-5.34-3.85,0-5.45.66-5.45,14.68s1.65,14.68,5.45,14.68,5.06-1.1,5.06-5.94Zm32.82-8.75c0,18.59-1.92,21.01-11.83,21.01s-11.72-2.97-11.72-21.01c0-15.95,1.98-20.95,11.83-20.95,10.34,0,11.72,3.19,11.72,20.95Zm-6.33,0c0-14.46-.99-14.68-5.5-14.68-3.96,0-5.45.66-5.45,14.68s1.43,14.68,5.45,14.68,5.5-.93,5.5-14.68Zm36.66-20.18v40.26h-6.27v-13.97c0-.44-.22-.66-.44-.66-.16,0-.39.16-.44.44l-4.02,14.19h-4.02l-4.23-14.02c-.11-.44-.33-.66-.49-.66-.22,0-.44.33-.44.88v13.8h-6.27v-40.26h6.27l6.49,23.04c.17.66.49.99.83.99.28,0,.6-.33.77-.99l5.99-23.04h6.27Zm27.36,12.54c0,9.02-3.74,12.1-12.43,12.1h-3.74c-.44,0-.72.22-.72.66v14.9h-6.16v-40.15h11.27c8.64,0,11.77,3.36,11.77,12.49Zm-6.27,0c0-4.73-.6-6.71-7.15-6.71h-2.86c-.44,0-.61.22-.61.49v11.77c0,.44.22.6.55.6h2.92c5.99,0,7.15-1.65,7.15-6.16Zm18.8-21.18h5.72l-4.35,6.93h-3.47l2.09-6.93Zm9.46,42.57v6.27h-19.42v-40.21h19.42v5.83h-11.77c-.72,0-1.38.77-1.38,1.43v10.73c0,.66.55,1.38,1.27,1.38h9.68v6.27h-9.62c-.77,0-1.32.66-1.32,1.49v5.44c0,.61.33,1.38,1.27,1.38h11.88Zm26.59-33.93v5.83h-7.15c-.88,0-1.21.82-1.21,1.38v33h-6.27v-33.05c0-.77-.33-1.32-1.04-1.32h-7.32v-5.83h22.99Zm21.58,33.93v6.27h-19.41v-40.21h19.41v5.72h-11.77c-.72,0-1.38.77-1.38,1.43v10.83c0,.66.55,1.38,1.26,1.38h9.68v6.27h-9.62c-.77,0-1.32.66-1.32,1.49v5.44c0,.61.33,1.38,1.26,1.38h11.88Zm26.53-33.88v40.15h-6.27l-10.34-23.87c-.05-.11-.17-.17-.22-.17-.11,0-.22.06-.22.22v23.82h-6.27v-40.15h6.27l10.34,24.14c.05.11.17.22.28.22.05,0,.16-.11.16-.22v-24.14h6.27Zm20.02,28.88h6.43c-.66,10.45-3.47,12.26-11.49,12.26-9.74,0-11.72-2.97-11.72-21.01,0-15.95,1.98-20.95,11.83-20.95,8.2,0,10.67,1.98,11.39,11.61h-6.38c0-4.84-1.71-5.34-5.11-5.34-3.85,0-5.45.66-5.45,14.68s1.65,14.68,5.45,14.68,5.06-1.1,5.06-5.94Zm29.13,5v6.27h-19.42v-40.21h19.42v5.72h-11.77c-.71,0-1.38.77-1.38,1.43v10.83c0,.66.55,1.38,1.27,1.38h9.68v6.27h-9.62c-.77,0-1.32.66-1.32,1.49v5.44c0,.61.33,1.38,1.27,1.38h11.88Z"/>
  <g>
    <circle class="cls-11" cx="1041.19" cy="631.12" r="78.93"/>
    <path class="cls-11" d="m1010.88,498.73c0,8.16-1.63,11.55-9.68,16.56l-6.01,3.73c-2.27,1.4-3.62,2.97-3.62,5.37v1.87h9.97c1.75,0,2.39-.93,2.39-2.62v-2.33h6.12v10.67h-25.25v-9.27c0-3.09,1.87-6.36,6.47-9.39l4.2-2.74c7-4.55,8.11-6.77,8.11-9.62,0-2.22-.41-5.54-5.72-5.54-6.3,0-6.01,4.49-6.01,7.23v.99h-6.59c0-7.12.52-14.76,13.01-14.76,10.96,0,12.6,4.72,12.6,9.86Zm28.67-1.63v26.24c0,8.11-4.67,9.39-12.01,9.39-9.97,0-12.13-2.33-12.13-9.39v-26.24c0-5.48,3.09-8.11,12.19-8.11,7.87,0,11.96,2.62,11.96,8.11Zm-6.71,22.4v-16.21c0-6.07-.99-7.76-5.19-7.76-4.67,0-5.42,1.28-5.42,7.76v16.21c0,5.31,1.69,6.59,5.37,6.59s5.25-2.16,5.25-6.59Zm23.43-26.3v11.78c0,4.26-2.57,4.84-5.77,4.84-4.43,0-5.77-1.22-5.77-4.84v-11.78c0-3.03,1.81-4.32,5.83-4.32,3.44,0,5.72,1.28,5.72,4.32Zm13.88-3.79h4.55l-26.54,42.63h-4.61l26.59-42.63Zm3.32,26.42v11.72c0,4.26-2.57,4.9-5.77,4.9-4.43,0-5.77-1.22-5.77-4.9v-11.72c0-3.03,1.81-4.32,5.83-4.32,3.44,0,5.72,1.22,5.72,4.32Zm-21.35-12.6v-7.23c0-2.68-.35-2.8-1.57-2.8-1.4,0-1.69,0-1.69,2.8v7.23c0,2.04.52,2.27,1.69,2.27s1.57-.47,1.57-2.27Zm17.2,22.63v-7.29c0-2.62-.35-2.8-1.57-2.8-1.4,0-1.63.06-1.63,2.8v7.29c0,2.04.47,2.22,1.63,2.22s1.57-.47,1.57-2.22Z"/>
    <g class="cls-15">
      <g>
        <path class="cls-14" d="m1070.22,581.01c1.24-.02,2.49-.04,3.74-.04.02.7.04,2.06.06,2.76-1.28,0-2.55,0-3.82,0,0-.67.02-2.02.02-2.7h0Z"/>
        <path class="cls-7" d="m994.45,581.58c2.28.01,4.57.03,6.86.04-.2,4.08.6,8.32-.55,12.29-1.49,2.85-5.2,2.3-7.87,2.35-.11-.9-.21-1.81-.31-2.71,1.53-.13,3.2.18,4.61-.61.92-2.83.5-5.85.28-8.76-.78.01-2.33.03-3.12.04.03-.66.06-1.98.09-2.63h.01Z"/>
        <path class="cls-7" d="m1040.12,582.7c2.69-2.08,6.22-1.23,9.2-.42,0,.79-.02,2.37-.02,3.16-2.31-.93-6.71-2.97-7.3.87,2.19.67,4.51,1.06,6.49,2.24,2.11,1.72,1.52,5.63-.92,6.81-2.77,1.64-6.05.74-8.97.15-.17-1.21-.33-2.42-.49-3.63,2.46,1.08,7.43,3.65,8.17-.5-2.46-.93-5.54-1.06-7.33-3.19-.79-1.81-.65-4.33,1.14-5.49h.02Z"/>
        <path class="cls-7" d="m1089.16,582.08h3.14c.03,1,.06,2,.11,3.01.79,0,2.41.03,3.21.03.02.61.04,1.82.06,2.43-.82,0-2.45-.03-3.26-.04.04,2.03-.48,4.25.54,6.12.77.08,2.28.23,3.05.31-.08,3.73-4.34,2.04-6.59,1.45-.21-2.28-.3-4.56-.3-6.85-.57-.81-1.15-1.62-1.72-2.43.43-.4,1.31-1.2,1.74-1.6,0-.61.02-1.84.03-2.44h0Z"/>
        <path class="cls-7" d="m1004.08,585.21c2.9-.15,6.94-1.23,8.76,1.77.65,2.97.24,6.04.33,9.05-1.3-.11-2.59-.24-3.87-.35-1.48.13-3.2,1.21-4.56.24-2.25-1.08-2.28-5.07.08-6.04,1.72-.71,3.6-.84,5.4-1.26-1.71-1.77-4.14-1.1-6.3-.87.04-.64.12-1.91.16-2.53m2.82,6.09c-.1.86-.18,1.72-.27,2.59.99-.05,1.97-.1,2.96-.15.07-.93.15-1.86.23-2.8-.99.11-1.96.24-2.92.35Z"/>
        <path class="cls-7" d="m1014.5,584.9c.85.17,2.56.5,3.41.67.89,2.06,1.5,4.22,2.38,6.3.73-2.21,1.4-4.46,2.06-6.7.85-.01,2.56-.04,3.41-.06-1.21,3.8-2.55,7.56-4.06,11.27-1.17-.15-2.33-.4-3.44-.72-1.62-3.44-2.68-7.11-3.76-10.75h0Z"/>
        <path class="cls-7" d="m1026.86,587.73c.25-.84.53-1.69.84-2.51,2.75-.4,6.47-.99,8.37,1.59.65,3.06.25,6.24.31,9.36-1.31-.18-2.6-.35-3.9-.53-2.33,1.23-6.2.79-6.14-2.48-.44-3.89,4.41-3.94,7.04-4.45-1.59-2.13-4.34-1-6.52-.97m3.21,3.65c-.1.79-.18,1.6-.28,2.41.98.03,1.95.05,2.94.07.09-.99.18-1.96.27-2.94-.98.15-1.95.31-2.92.47h0Z"/>
        <path class="cls-7" d="m1050.59,590.62c-.28-4.82,5.86-7.35,9.54-4.78.08.68.26,2.06.33,2.74-1.69-.53-3.41-1.74-5.22-.92-1.92,1.82-1.52,6.46,1.73,6.19.89-.28,2.68-.85,3.58-1.14-.16.76-.47,2.29-.62,3.04-3.84,1.81-9.64-.33-9.33-5.14Z"/>
        <path class="cls-7" d="m1061.93,584.86c1.33.35,2.69.71,4.02,1.09,1-.36,2.01-.72,3.04-1.08.04.85.15,2.55.21,3.41-1.28.06-2.55.13-3.82.18-.09,2.55-.11,5.08-.14,7.63-.83,0-2.51.01-3.34.03-.04-3.75-.06-7.5.03-11.25h0Z"/>
        <path class="cls-7" d="m1076.35,585.1c2.45.55,4.91.38,7.35-.11,3.82.79,3.91,6.21,2.45,9.05-1.21,2.45-4.16,2.21-6.44,2.09.02,1.29.04,2.58.06,3.87-.85,0-2.57-.03-3.43-.04,0-4.95,0-9.9,0-14.86m3.46,2.61c-.04,2.06-.06,4.14-.04,6.21,1.1-.31,2.52-.09,3.35-1.04.62-1.69.13-3.5,0-5.24-1.11.01-2.21.04-3.33.07h0Z"/>
        <path class="cls-7" d="m1070.54,585.12h3.15c.05,3.66.05,7.32,0,10.98h-3.15c-.06-3.65-.06-7.32,0-10.98Z"/>
        <path class="cls-9" d="m1004.73,603.23c8.84-.37,17.7.11,26.56-.04,9.76-.31,19.52-.06,29.3-.02,7.75.02,15.5-.03,23.25.03-2.44,26.89-4.9,53.79-7.16,80.71-10.39,2.95-20.78,5.86-31.17,8.79-1.33.54-2.7.04-3.97-.31-9.87-2.84-19.75-5.65-29.63-8.38-2.57-26.9-5-53.84-7.17-80.78Zm39.72,7.02c-.36,13.27-.05,26.54-.16,39.8.1,12.13-.18,24.27.14,36.4,8.73-2.05,17.34-4.58,25.95-7.07,2.16-23.03,4.28-46.07,6.08-69.13-10.67-.11-21.35.02-32.02,0m-11.11,51.81c-5.12-1.4-10.19-3.01-15.39-4.12-.15,3.09-.1,6.17.26,9.24,7.61,1.85,15.06,4.29,22.68,6.11.05-17.57-.03-35.15.04-52.71-2.48-.06-4.97-.1-7.45-.15-.28,13.86-.01,27.76-.13,41.63h0Z"/>
        <path class="cls-5" d="m1044.45,610.24c10.67.03,21.35-.1,32.02,0-1.81,23.06-3.92,46.09-6.08,69.12-8.61,2.49-17.23,5.02-25.96,7.07-.32-12.13-.04-24.27-.14-36.4.11-13.27-.21-26.53.16-39.8m2.99,10.32c.03,11.42.04,22.85,0,34.28,5.22-.85,10.41-1.81,15.61-2.76-.08,2.66-.18,5.32-.3,7.98-5.07,1.35-10.12,2.74-15.21,3.99-.08,3.06-.09,6.14-.06,9.21,6.42-1.43,12.73-3.25,19.1-4.85.79-.37,2.34-.33,2.26-1.57.77-8.22,1.25-16.46,1.99-24.69-5.28.43-10.5,1.31-15.78,1.69-.04-4.67-.05-9.33.01-13.99h16.65c.35-3.11.67-6.24.91-9.35-8.39.04-16.79-.08-25.18.07h0Z"/>
        <path class="cls-16" d="m1033.34,662.06c.11-13.88-.15-27.78.14-41.64,2.48.05,4.97.09,7.45.15-.06,17.57.02,35.15-.04,52.71-7.62-1.82-15.07-4.26-22.68-6.11-.35-3.07-.41-6.15-.26-9.24,5.2,1.11,10.26,2.73,15.39,4.13h0Z"/>
      </g>
    </g>
  </g>
  <g>
    <circle class="cls-12" cx="547.67" cy="633.25" r="110.03"/>
    <path class="cls-12" d="m532.04,495.15c0,11.04-2.8,18.97-17.89,18.97s-16.72-9.88-16.72-14.23h9.18c0,3.42,2.49,5.75,7.54,5.75,6.84,0,8.79-3.42,8.79-9.72,0-7.39-3.34-10.03-8.24-10.03-5.52,0-7.47,4.2-7.47,4.2h-8.71v-33.75h32.27v12.52h-7.15v-1.24c0-1.87-1.32-3.19-3.65-3.19h-11.74c-.86,0-1.32.62-1.32,1.56v14.46c1.79-1.79,5.44-3.03,9.02-3.03,4.28,0,16.1,2.72,16.1,17.73Zm38.08-28.54v34.99c0,10.81-6.22,12.52-16.02,12.52-13.3,0-16.17-3.11-16.17-12.52v-34.99c0-7.31,4.12-10.81,16.25-10.81,10.5,0,15.94,3.5,15.94,10.81Zm-8.94,29.86v-21.62c0-8.09-1.32-10.34-6.92-10.34-6.22,0-7.23,1.71-7.23,10.34v21.62c0,7.08,2.26,8.79,7.15,8.79s7-2.88,7-8.79Zm31.25-35.07v15.71c0,5.68-3.42,6.45-7.7,6.45-5.91,0-7.7-1.63-7.7-6.45v-15.71c0-4.04,2.41-5.75,7.78-5.75,4.59,0,7.62,1.71,7.62,5.75Zm18.51-5.05h6.07l-35.38,56.84h-6.14l35.46-56.84Zm4.43,35.23v15.63c0,5.68-3.42,6.53-7.7,6.53-5.91,0-7.7-1.63-7.7-6.53v-15.63c0-4.04,2.41-5.75,7.78-5.75,4.59,0,7.62,1.63,7.62,5.75Zm-28.46-16.8v-9.64c0-3.58-.47-3.73-2.1-3.73-1.87,0-2.26,0-2.26,3.73v9.64c0,2.72.7,3.03,2.26,3.03s2.1-.62,2.1-3.03Zm22.94,30.17v-9.72c0-3.5-.47-3.73-2.1-3.73-1.87,0-2.18.08-2.18,3.73v9.72c0,2.72.62,2.95,2.18,2.95s2.1-.62,2.1-2.95Z"/>
    <g class="cls-10">
      <g>
        <path d="m503.73,544.99h7.94v7.9h7.32v-7.9h7.94v23.89h-7.94v-7.97h-7.25v7.97h-8.01m33.68-15.93h-7v-7.96h21.98v7.96h-7.04v15.93h-7.94m18.46-23.89h8.32l5.11,8.41,5.11-8.41h8.32v23.89h-7.94v-11.84l-5.56,8.59-5.56-8.59v11.84h-7.8m30.78-23.89h7.94v16h11.25v7.9h-19.19"/>
        <path class="cls-18" d="m503.46,708.09l-11.39-128.26h125.2l-11.39,128.19-51.31,14.27"/>
        <path class="cls-3" d="m554.67,711.38v-121.03h51.18l-9.77,109.43"/>
        <path class="cls-16" d="m515.33,606.04h39.34v15.72h-22.15l1.45,16.1h20.7v15.69h-35.06m.69,7.9h15.74l1.1,12.57,17.53,4.71v16.41l-32.16-9"/>
        <path class="cls-2" d="m593.87,606.04h-39.27v15.72h37.82m-1.42,16.1h-36.41v15.72h19.32l-1.83,20.43-17.5,4.71v16.34l32.09-8.93"/>
      </g>
    </g>
  </g>
  <g>
    <circle class="cls-12" cx="809.92" cy="628.25" r="110.03"/>
    <path class="cls-12" d="m794.29,490.14c0,11.04-2.8,18.97-17.89,18.97s-16.72-9.88-16.72-14.23h9.18c0,3.42,2.49,5.75,7.54,5.75,6.84,0,8.79-3.42,8.79-9.72,0-7.39-3.34-10.03-8.24-10.03-5.52,0-7.47,4.2-7.47,4.2h-8.71v-33.75h32.27v12.52h-7.15v-1.24c0-1.87-1.32-3.19-3.65-3.19h-11.74c-.86,0-1.32.62-1.32,1.56v14.46c1.79-1.79,5.44-3.03,9.02-3.03,4.28,0,16.1,2.72,16.1,17.73Zm38.08-28.54v34.99c0,10.81-6.22,12.52-16.02,12.52-13.3,0-16.17-3.11-16.17-12.52v-34.99c0-7.31,4.12-10.81,16.25-10.81,10.5,0,15.94,3.5,15.94,10.81Zm-8.94,29.86v-21.62c0-8.09-1.32-10.34-6.92-10.34-6.22,0-7.23,1.71-7.23,10.34v21.62c0,7.08,2.26,8.79,7.15,8.79s7-2.88,7-8.79Zm31.25-35.07v15.71c0,5.68-3.42,6.45-7.7,6.45-5.91,0-7.7-1.63-7.7-6.45v-15.71c0-4.04,2.41-5.75,7.78-5.75,4.59,0,7.62,1.71,7.62,5.75Zm18.51-5.05h6.07l-35.38,56.84h-6.14l35.46-56.84Zm4.43,35.23v15.63c0,5.68-3.42,6.53-7.7,6.53-5.91,0-7.7-1.63-7.7-6.53v-15.63c0-4.04,2.41-5.75,7.78-5.75,4.59,0,7.62,1.63,7.62,5.75Zm-28.46-16.8v-9.64c0-3.58-.47-3.73-2.1-3.73-1.87,0-2.26,0-2.26,3.73v9.64c0,2.72.7,3.03,2.26,3.03s2.1-.62,2.1-3.03Zm22.94,30.17v-9.72c0-3.5-.47-3.73-2.1-3.73-1.87,0-2.18.08-2.18,3.73v9.72c0,2.72.62,2.95,2.18,2.95s2.1-.62,2.1-2.95Z"/>
    <g class="cls-6">
      <g>
        <path class="cls-1" d="m873.3,575.6l-11.62,131-52.22,14.57-52.08-14.56-11.61-131.02h127.53Z"/>
        <path class="cls-13" d="m851.73,698.26l9.93-111.95h-52.13v123.73l42.2-11.78Z"/>
        <path class="cls-16" d="m772.37,634.9l1.43,16.07h35.72v-16.07h-37.16Z"/>
        <path class="cls-16" d="m809.53,602.38h-40.03l1.45,16.07h38.58v-16.07Z"/>
        <path class="cls-16" d="m809.53,693.36v-16.72l-.07.02-17.78-4.83-1.14-12.82h-16.03l2.24,25.23,32.71,9.14.07-.02Z"/>
        <path d="m775.78,539.99h19.34v8.14h-11.25v8.14h11.25v8.14h-19.34v-24.42Z"/>
        <path d="m798.98,539.99h19.34v7.08h-11.25v1.42h11.25v16.28h-19.34v-7.43h11.25v-1.42h-11.25v-15.92Z"/>
        <path d="m822.18,539.99h19.34v7.08h-11.25v1.42h11.25v16.28h-19.34v-7.43h11.25v-1.42h-11.25v-15.92Z"/>
        <path class="cls-2" d="m829.13,650.97l-1.85,20.85-17.81,4.84v16.72l32.73-9.13.24-2.72,3.75-42.3.39-4.32,2.88-32.53h-39.99v16.07h22.5l-1.45,16.46h-21.04v16.07h19.66Z"/>
      </g>
    </g>
  </g>
  <g>
    <circle class="cls-4" cx="247.55" cy="645.96" r="148.91"/>
    <path class="cls-4" d="m226.18,404.95v7.17l-32.05,65.49h-12.74l29.86-60.42c.1-.2.2-.4.2-.7,0-.6-.5-1.09-1.49-1.09h-15.83c-5.87,0-5.47.8-5.47,5.77v1.69h-10.05v-17.92h47.58Zm48.01,13.14v44.79c0,13.84-7.96,16.03-20.5,16.03-17.02,0-20.7-3.98-20.7-16.03v-44.79c0-9.36,5.28-13.84,20.8-13.84,13.44,0,20.4,4.48,20.4,13.84Zm-11.45,38.22v-27.67c0-10.35-1.69-13.24-8.86-13.24-7.96,0-9.26,2.19-9.26,13.24v27.67c0,9.06,2.89,11.25,9.16,11.25s8.96-3.68,8.96-11.25Zm39.99-44.89v20.11c0,7.27-4.38,8.26-9.85,8.26-7.56,0-9.85-2.09-9.85-8.26v-20.11c0-5.18,3.09-7.37,9.95-7.37,5.87,0,9.75,2.19,9.75,7.37Zm23.69-6.47h7.76l-45.29,72.76h-7.86l45.39-72.76Zm5.67,45.09v20.01c0,7.27-4.38,8.36-9.85,8.36-7.56,0-9.85-2.09-9.85-8.36v-20.01c0-5.18,3.09-7.37,9.95-7.37,5.87,0,9.75,2.09,9.75,7.37Zm-36.43-21.5v-12.34c0-4.58-.6-4.78-2.69-4.78-2.39,0-2.89,0-2.89,4.78v12.34c0,3.48.9,3.88,2.89,3.88s2.69-.8,2.69-3.88Zm29.36,38.62v-12.44c0-4.48-.6-4.78-2.69-4.78-2.39,0-2.79.1-2.79,4.78v12.44c0,3.48.8,3.78,2.79,3.78s2.69-.8,2.69-3.78Z"/>
    <path class="cls-19" d="m222.68,567.01h-73.68v176.27l73.68-176.27Z"/>
    <path class="cls-19" d="m274.38,567.01h73.56v176.27l-73.56-176.27Z"/>
    <path class="cls-19" d="m248.59,632.04l46.91,111.25h-30.7l-14-35.4h-34.26l32.17-75.85h-.12Z"/>
    <g>
      <path class="cls-8" d="m202.91,542.13l2.78,7.96c.09.2.23.29.48.29h5.34c.29,0,.34-.14.29-.43l-11.03-30.63c-.05-.25-.09-.29-.34-.29h-6.63c-.18,0-.29.14-.29.34-.09,1.61-.23,2.1-.43,2.58l-9.83,27.96c-.05.34.06.48.34.48h4.77c.29,0,.43-.09.54-.38l2.62-7.87h11.4Zm-9.88-5.2c1.44-4.36,3.34-9.94,4.11-13.13h.05c.95,3.34,3.19,9.97,4.2,13.13h-8.36Z"/>
      <path class="cls-8" d="m225.97,550.86c2.87,0,5.92-.52,9.02-1.86.25-.09.29-.2.29-.43-.09-.86-.2-2.1-.2-3.05v-28.84c0-.18,0-.28-.23-.28h-5.2c-.2,0-.29.09-.29.34v9.77c-.81-.09-1.38-.14-2.06-.14-8.39,0-13.54,5.54-13.54,12.46,0,8.02,5.29,12.03,12.21,12.03Zm3.39-5.34c-.86.28-1.81.38-2.78.38-3.8,0-6.92-2.15-6.92-7.36,0-4.62,3.21-7.35,7.45-7.35.86,0,1.61.09,2.24.34v13.99Z"/>
      <path class="cls-8" d="m251.87,526.38c-7.16,0-11.6,5.49-11.6,12.27,0,6.06,3.53,12.21,11.49,12.21,6.73,0,11.46-4.95,11.46-12.36,0-6.53-4-12.12-11.35-12.12Zm-.29,4.82c4.05,0,5.77,3.48,5.77,7.45,0,4.91-2.53,7.35-5.48,7.35-3.64,0-5.78-3.05-5.78-7.45s2.29-7.35,5.49-7.35Z"/>
      <path class="cls-8" d="m268.59,516.41c-.2,0-.34.09-.34.34v32.64c0,.14.14.38.34.43,2.29.71,4.68,1.04,7.15,1.04,7.07,0,13.94-4.39,13.94-13.22,0-6.4-4.39-11.26-11.26-11.26-1.58,0-3.05.25-4.34.67l-.06-10.26c0-.34-.09-.38-.43-.38h-5Zm15.22,21.81c0,5.29-3.62,7.78-7.53,7.78-.81,0-1.53-.05-2.19-.25v-13.93c.75-.29,1.66-.54,3.33-.54,3.77,0,6.4,2.39,6.4,6.93Z"/>
      <path class="cls-8" d="m309.09,539.94c2.33,0,4.25-.05,4.91-.2.25-.05.34-.14.38-.34.14-.52.2-1.61.2-2.95,0-4.54-2.73-10.08-9.79-10.08s-11.21,5.87-11.21,12.5c0,5.87,3.1,11.98,11.78,11.98,3.25,0,5.35-.52,7.16-1.38.18-.09.28-.25.28-.52v-3.97c0-.23-.14-.28-.28-.18-1.81.77-3.77,1.15-5.92,1.15-4.86,0-7.07-2.68-7.21-6.01h9.69Zm-9.69-4.11c.38-2.33,1.86-4.86,5.15-4.86,3.64,0,4.59,3.05,4.59,4.43v.38c-.2.05-.81.05-2.62.05h-7.12Z"/>
    </g>
  </g>
</svg>