<?xml version="1.0" encoding="UTF-8"?>
<svg id="Calque_1" data-name="Calque 1" xmlns="http://www.w3.org/2000/svg" viewBox="0 0 1218 985.72">
  <defs>
    <style>
      .cls-1 {
        fill: #d9ec8f;
      }

      .cls-2 {
        fill: #ec8f93;
      }

      .cls-3 {
        fill: #eca28f;
      }
    </style>
  </defs>
  <path class="cls-1" d="m1218,287c-79.25,0-143.5-64.25-143.5-143.5S1138.75,0,1218,0"/>
  <path class="cls-1" d="m0,504c79.25,0,143.5,64.25,143.5,143.5S79.25,791,0,791"/>
  <circle class="cls-2" cx="89" cy="164.5" r="80.5"/>
  <circle class="cls-3" cx="1049" cy="714.5" r="80.5"/>
  <circle class="cls-2" cx="903" cy="534.5" r="80.5"/>
  <circle class="cls-3" cx="208" cy="325.5" r="80.5"/>
  <circle class="cls-3" cx="888" cy="875.5" r="80.5"/>
  <path d="m983.99,145.04c0,15.35-4.51,19.96-11.77,19.96h-11.22v-33c0-.77-.44-1.43-1.38-1.43h-3.52v-5.78l16.11.06c6.88.06,11.77,2.75,11.77,20.19Zm-6.21,0c0-10.07-.66-14.41-7.21-14.41h-2.53c-.55,0-.82.33-.82.82v26.9c0,.55.27.77.71.77h2.64c6,0,7.21-5.17,7.21-14.08Zm16.83-17.33c0,2.03-1.65,3.63-3.69,3.63s-3.63-1.6-3.63-3.63,1.65-3.63,3.63-3.63,3.69,1.6,3.69,3.63Zm-.55,5.94v31.35h-6.27v-31.35h6.27Zm27.72,3.69c0,9.02-3.74,12.1-12.43,12.1h-3.74c-.44,0-.72.22-.72.66v14.9h-6.16v-40.15h11.28c8.63,0,11.77,3.36,11.77,12.49Zm-6.27,0c0-4.73-.61-6.71-7.15-6.71h-2.86c-.44,0-.61.22-.61.49v11.77c0,.44.22.6.55.6h2.92c5.99,0,7.15-1.65,7.15-6.16Zm29.46,22.05v5.61h-20.68v-40.15h6.71v32.72c0,1.1.77,1.82,1.98,1.82h11.99Zm25.57-14.41c0,18.59-1.92,21.01-11.82,21.01s-11.72-2.97-11.72-21.01c0-15.95,1.98-20.95,11.83-20.95,10.34,0,11.71,3.19,11.71,20.95Zm-6.32,0c0-14.46-.99-14.68-5.5-14.68-3.96,0-5.45.66-5.45,14.68s1.43,14.68,5.45,14.68,5.5-.93,5.5-14.68Zm36.65-20.18v40.26h-6.27v-13.97c0-.44-.22-.66-.44-.66-.16,0-.38.16-.44.44l-4.01,14.19h-4.02l-4.23-14.02c-.11-.44-.33-.66-.5-.66-.22,0-.44.33-.44.88v13.8h-6.27v-40.26h6.27l6.49,23.04c.17.66.5.99.83.99.27,0,.6-.33.77-.99l5.99-23.04h6.27Zm23.57,33.93v6.27h-19.42v-40.21h19.42v5.72h-11.77c-.72,0-1.38.77-1.38,1.43v10.83c0,.66.55,1.38,1.27,1.38h9.68v6.27h-9.63c-.77,0-1.32.66-1.32,1.49v5.44c0,.61.33,1.38,1.27,1.38h11.88Z"/>
  <path d="m63.79,630.73v6.27h-19.42v-40.21h19.42v5.72h-11.77c-.71,0-1.38.77-1.38,1.43v10.84c0,.66.55,1.38,1.26,1.38h9.68v6.27h-9.62c-.77,0-1.32.66-1.32,1.48v5.45c0,.61.33,1.38,1.26,1.38h11.88Zm16.84-13.31l8.31,19.58h-6.38l-5.17-11.93c-.06-.16-.17-.22-.28-.22s-.22.06-.28.22l-5.06,11.93h-6.44l8.31-19.47c.11-.28.17-.5.17-.66,0-.22-.06-.39-.11-.55l-8.19-19.47h6.38l4.89,11.61c.06.16.22.27.33.27s.22-.11.33-.27l4.95-11.61h6.43l-8.25,19.53c-.06.16-.11.33-.11.49,0,.22.06.39.17.55Zm33.89-8.08c0,9.02-3.74,12.1-12.43,12.1h-3.74c-.44,0-.71.22-.71.66v14.91h-6.16v-40.15h11.28c8.63,0,11.77,3.36,11.77,12.49Zm-6.27,0c0-4.73-.61-6.71-7.15-6.71h-2.86c-.44,0-.6.22-.6.49v11.77c0,.44.22.6.55.6h2.91c6,0,7.15-1.65,7.15-6.16Zm28.26,21.39v6.27h-19.41v-40.21h19.41v5.72h-11.77c-.72,0-1.38.77-1.38,1.43v10.84c0,.66.55,1.38,1.26,1.38h9.68v6.27h-9.62c-.77,0-1.32.66-1.32,1.48v5.45c0,.61.33,1.38,1.26,1.38h11.88Zm18.11-9.62l8.25,15.9h-6.71l-7.87-15.12c-.11-.28-.27-.44-.6-.44h-1.21c-.27,0-.49.22-.49.49v15.07h-6.16v-40.15h11.22c8.69,0,11.82,3.36,11.82,12.49,0,7.42-2.53,10.78-8.25,11.77Zm1.98-11.77c0-4.73-.66-6.71-7.21-6.71h-2.59c-.55,0-.82.16-.82.66v11.55c0,.33.16.66.6.66h2.81c5.99,0,7.21-1.65,7.21-6.16Zm17.01-9.62c0,2.03-1.65,3.63-3.69,3.63s-3.63-1.6-3.63-3.63,1.65-3.63,3.63-3.63,3.69,1.59,3.69,3.63Zm-.55,5.94v31.35h-6.27v-31.35h6.27Zm23.92,25.08v6.27h-19.42v-40.21h19.42v5.72h-11.77c-.71,0-1.38.77-1.38,1.43v10.84c0,.66.55,1.38,1.26,1.38h9.68v6.27h-9.62c-.77,0-1.32.66-1.32,1.48v5.45c0,.61.33,1.38,1.26,1.38h11.88Zm26.52-33.88v40.15h-6.27l-10.34-23.87c-.05-.11-.16-.16-.22-.16-.11,0-.22.05-.22.22v23.82h-6.27v-40.15h6.27l10.34,24.15c.05.11.16.22.27.22.05,0,.17-.11.17-.22v-24.15h6.27Zm20.02,28.88h6.43c-.66,10.45-3.46,12.27-11.49,12.27-9.73,0-11.71-2.97-11.71-21.01,0-15.95,1.98-20.95,11.83-20.95,8.2,0,10.67,1.98,11.38,11.6h-6.38c0-4.84-1.71-5.34-5.12-5.34-3.85,0-5.44.66-5.44,14.68s1.65,14.68,5.44,14.68,5.06-1.1,5.06-5.94Zm29.13,5.01v6.27h-19.41v-40.21h19.41v5.72h-11.77c-.71,0-1.38.77-1.38,1.43v10.84c0,.66.55,1.38,1.26,1.38h9.68v6.27h-9.62c-.77,0-1.32.66-1.32,1.48v5.45c0,.61.33,1.38,1.26,1.38h11.88Zm-205.09,43.61c0,9.02-3.74,12.1-12.43,12.1h-3.74c-.44,0-.72.22-.72.66v14.91h-6.16v-40.15h11.27c8.64,0,11.77,3.36,11.77,12.49Zm-6.27,0c0-4.73-.6-6.71-7.15-6.71h-2.86c-.44,0-.61.22-.61.49v11.77c0,.44.22.6.55.6h2.92c5.99,0,7.15-1.65,7.15-6.16Zm24.08,11.77l8.25,15.9h-6.71l-7.87-15.12c-.11-.28-.27-.44-.6-.44h-1.21c-.28,0-.5.22-.5.49v15.07h-6.16v-40.15h11.22c8.69,0,11.83,3.36,11.83,12.49,0,7.42-2.53,10.78-8.25,11.77Zm1.98-11.77c0-4.73-.66-6.71-7.2-6.71h-2.59c-.55,0-.82.16-.82.66v11.55c0,.33.17.66.61.66h2.81c5.99,0,7.2-1.65,7.2-6.16Zm32.53,7.64c0,18.59-1.93,21.01-11.82,21.01s-11.71-2.97-11.71-21.01c0-15.95,1.98-20.95,11.82-20.95,10.34,0,11.71,3.19,11.71,20.95Zm-6.32,0c0-14.46-.99-14.68-5.5-14.68-3.96,0-5.45.66-5.45,14.68s1.43,14.68,5.45,14.68,5.5-.93,5.5-14.68Zm29.34-20.18v5.72h-11.77c-.71,0-1.38.77-1.38,1.43v10.84c0,.66.55,1.38,1.26,1.38h9.68v6.27h-9.62c-.77,0-1.38.66-1.38,1.48v13.09h-6.21v-40.21h19.42Zm22.12,33.93v6.27h-19.41v-40.21h19.41v5.72h-11.77c-.71,0-1.38.77-1.38,1.43v10.84c0,.66.55,1.38,1.26,1.38h9.68v6.27h-9.62c-.77,0-1.32.66-1.32,1.48v5.45c0,.61.33,1.38,1.26,1.38h11.88Zm26.03-5.61c.06.77.11,1.54.11,2.26,0,6.54-3.46,10.61-12.1,10.61-9.3,0-11.77-2.58-11.77-12.1h6.49c0,4.51.5,5.99,5.28,5.99,4.4,0,5.33-1.65,5.33-4.62,0-2.04-.27-3.24-4.24-5.99l-3.68-2.59c-4.62-3.24-9.18-5.61-9.18-12.48,0-5.83,2.91-10.17,11.93-10.17s11.55,2.47,11.55,11.38h-6.38c0-4.95-1.87-5.33-5.33-5.33-3.91,0-5.12,1.54-5.12,4.18,0,1.87.55,3.14,5.61,6.43l4.18,2.75c3.58,2.36,6.88,5.45,7.32,9.68Zm26,0c.05.77.11,1.54.11,2.26,0,6.54-3.46,10.61-12.1,10.61-9.29,0-11.77-2.58-11.77-12.1h6.49c0,4.51.5,5.99,5.28,5.99,4.4,0,5.34-1.65,5.34-4.62,0-2.04-.27-3.24-4.24-5.99l-3.68-2.59c-4.62-3.24-9.18-5.61-9.18-12.48,0-5.83,2.91-10.17,11.93-10.17s11.55,2.47,11.55,11.38h-6.38c0-4.95-1.87-5.33-5.34-5.33-3.9,0-5.11,1.54-5.11,4.18,0,1.87.55,3.14,5.61,6.43l4.18,2.75c3.57,2.36,6.88,5.45,7.32,9.68Zm10.43-25.41c0,2.03-1.65,3.63-3.68,3.63s-3.63-1.6-3.63-3.63,1.65-3.63,3.63-3.63,3.68,1.59,3.68,3.63Zm-.55,5.94v31.35h-6.27v-31.35h6.27Zm27.61,11.33c0,18.59-1.93,21.01-11.83,21.01s-11.71-2.97-11.71-21.01c0-15.95,1.98-20.95,11.82-20.95,10.34,0,11.72,3.19,11.72,20.95Zm-6.33,0c0-14.46-.99-14.68-5.5-14.68-3.96,0-5.45.66-5.45,14.68s1.43,14.68,5.45,14.68,5.5-.93,5.5-14.68Zm33.3-20.13v40.15h-6.27l-10.34-23.87c-.06-.11-.17-.16-.22-.16-.11,0-.22.05-.22.22v23.82h-6.27v-40.15h6.27l10.34,24.15c.05.11.17.22.27.22.05,0,.17-.11.17-.22v-24.15h6.27Zm27.5,0v40.15h-6.27l-10.34-23.87c-.06-.11-.17-.16-.22-.16-.11,0-.22.05-.22.22v23.82h-6.27v-40.15h6.27l10.34,24.15c.05.11.17.22.27.22.05,0,.17-.11.17-.22v-24.15h6.27Zm23.27,33.88v6.27h-19.42v-40.21h19.42v5.72h-11.77c-.71,0-1.38.77-1.38,1.43v10.84c0,.66.55,1.38,1.27,1.38h9.68v6.27h-9.62c-.77,0-1.32.66-1.32,1.48v5.45c0,.61.33,1.38,1.27,1.38h11.88Zm23.5.66v5.61h-20.68v-40.15h6.71v32.73c0,1.1.77,1.82,1.98,1.82h11.99Z"/>
  <path d="m94.08,173.53v5.47h-16.94v-35.09h16.94v5.09h-10.27c-.62,0-1.2.67-1.2,1.25v9.36c0,.58.48,1.2,1.1,1.2h8.45v5.47h-8.4c-.67,0-1.15.58-1.15,1.3v4.75c0,.53.29,1.2,1.1,1.2h10.37Zm23.15-29.57v35.04h-5.47l-9.02-20.83c-.05-.1-.14-.14-.19-.14-.1,0-.19.05-.19.19v20.78h-5.47v-35.04h5.47l9.02,21.07c.05.1.14.19.24.19.05,0,.14-.1.14-.19v-21.07h5.47Zm30.41,25.2h5.62c-.58,9.12-3.02,10.7-10.03,10.7-8.5,0-10.22-2.59-10.22-18.34,0-13.92,1.73-18.29,10.32-18.29,7.15,0,9.31,1.73,9.94,10.13h-5.57c0-4.22-1.49-4.66-4.46-4.66-3.36,0-4.75.58-4.75,12.82s1.44,12.82,4.75,12.82,4.42-.96,4.42-5.18Zm28.64-7.63c0,16.22-1.68,18.34-10.32,18.34s-10.22-2.59-10.22-18.34c0-13.92,1.73-18.29,10.32-18.29,9.02,0,10.22,2.78,10.22,18.29Zm-5.52,0c0-12.62-.86-12.82-4.8-12.82-3.46,0-4.75.58-4.75,12.82s1.25,12.82,4.75,12.82,4.8-.82,4.8-12.82Zm28.63-17.62v18.72c0,15.07-1.92,17.23-10.32,17.23s-10.22-2.5-10.22-17.23v-18.72h5.47v18.82c0,10.7,1.34,11.62,4.75,11.62s4.8-.72,4.8-11.62v-18.82h5.52Zm16.2,21.22l7.2,13.87h-5.86l-6.86-13.2c-.1-.24-.24-.38-.53-.38h-1.06c-.24,0-.43.19-.43.43v13.15h-5.38v-35.04h9.79c7.58,0,10.32,2.93,10.32,10.9,0,6.48-2.21,9.41-7.2,10.27Zm1.73-10.27c0-4.13-.58-5.86-6.29-5.86h-2.26c-.48,0-.72.14-.72.58v10.08c0,.29.14.58.53.58h2.45c5.23,0,6.29-1.44,6.29-5.38Zm28.43,13.78c.05.67.1,1.34.1,1.97,0,5.71-3.02,9.26-10.56,9.26-8.11,0-10.27-2.26-10.27-10.56h5.66c0,3.94.43,5.23,4.61,5.23,3.84,0,4.66-1.44,4.66-4.03,0-1.78-.24-2.83-3.7-5.23l-3.22-2.26c-4.03-2.83-8.02-4.9-8.02-10.9,0-5.09,2.54-8.88,10.42-8.88s10.08,2.16,10.08,9.94h-5.57c0-4.32-1.63-4.66-4.66-4.66-3.41,0-4.46,1.34-4.46,3.65,0,1.63.48,2.74,4.9,5.62l3.65,2.4c3.12,2.06,6,4.75,6.38,8.45Zm23.39-16.42v4.32c0,.38-.29.72-.72.72h-4.27c-.43,0-.72-.34-.72-.72v-4.32c0-.38.29-.72.72-.72h4.27c.43,0,.72.34.72.72Zm0,21.79v4.27c0,.43-.29.72-.72.72h-4.27c-.43,0-.72-.29-.72-.72v-4.27c0-.43.29-.72.72-.72h4.27c.43,0,.72.29.72.72Zm40.86-12.43c0,13.39-3.94,17.42-10.27,17.42h-9.79v-28.8c0-.67-.38-1.25-1.2-1.25h-3.07v-5.04l14.06.05c6,.05,10.27,2.4,10.27,17.62Zm-5.42,0c0-8.78-.58-12.58-6.29-12.58h-2.21c-.48,0-.72.29-.72.72v23.47c0,.48.24.67.62.67h2.3c5.23,0,6.29-4.51,6.29-12.29Zm28.71-17.62v35.04h-5.47l-9.02-20.83c-.05-.1-.14-.14-.19-.14-.1,0-.19.05-.19.19v20.78h-5.47v-35.04h5.47l9.02,21.07c.05.1.14.19.24.19.05,0,.14-.1.14-.19v-21.07h5.47Zm26.93-.05v35.14h-5.47v-12.19c0-.38-.19-.58-.38-.58-.14,0-.34.14-.38.38l-3.5,12.38h-3.5l-3.7-12.24c-.1-.38-.29-.58-.43-.58-.19,0-.38.29-.38.77v12.05h-5.47v-35.14h5.47l5.66,20.11c.14.58.43.86.72.86.24,0,.53-.29.67-.86l5.23-20.11h5.47Zm19.08.05l7.73,35.04h-5.71l-1.78-7.87c-.05-.38-.34-.53-.67-.53h-8.11c-.29,0-.62.19-.67.43l-1.73,8.02h-5.52l8.06-35.09h8.4Zm-.86,21.79l-3.41-14.88c-.05-.1-.1-.14-.19-.14s-.19.05-.19.14l-3.36,14.93c0,.14.05.43.43.43h6.24c.34,0,.48-.19.48-.48Zm31.17-4.18c0,13.39-3.94,17.42-10.27,17.42h-9.84v-35.04h9.84c5.95,0,10.27,2.35,10.27,17.62Zm-5.47,0c0-8.78-.53-12.58-6.24-12.58h-2.3c-.38,0-.62.19-.62.58v23.76c0,.34.19.53.48.53h2.45c5.23,0,6.24-4.51,6.24-12.29Zm25.27,11.95v5.47h-16.94v-35.09h16.94v4.99h-10.27c-.62,0-1.2.67-1.2,1.25v9.46c0,.58.48,1.2,1.1,1.2h8.45v5.47h-8.4c-.67,0-1.15.58-1.15,1.3v4.75c0,.53.29,1.2,1.1,1.2h10.37Zm36.09-29.57v35.04h-5.47l-9.02-20.83c-.05-.1-.14-.14-.19-.14-.1,0-.19.05-.19.19v20.78h-5.47v-35.04h5.47l9.02,21.07c.05.1.14.19.24.19.05,0,.14-.1.14-.19v-21.07h5.47Zm23.57-.05v18.72c0,15.07-1.92,17.23-10.32,17.23s-10.22-2.5-10.22-17.23v-18.72h5.47v18.82c0,10.7,1.34,11.62,4.75,11.62s4.8-.72,4.8-11.62v-18.82h5.52Zm26.47,0v35.14h-5.47v-12.19c0-.38-.19-.58-.38-.58-.14,0-.34.14-.38.38l-3.5,12.38h-3.5l-3.7-12.24c-.1-.38-.29-.58-.43-.58-.19,0-.38.29-.38.77v12.05h-5.47v-35.14h5.47l5.66,20.11c.14.58.43.86.72.86.24,0,.53-.29.67-.86l5.23-20.11h5.47Zm12.31-7.54h4.99l-3.79,6.05h-3.02l1.82-6.05Zm8.26,37.15v5.47h-16.94v-35.09h16.94v5.09h-10.27c-.62,0-1.2.67-1.2,1.25v9.36c0,.58.48,1.2,1.1,1.2h8.45v5.47h-8.4c-.67,0-1.15.58-1.15,1.3v4.75c0,.53.29,1.2,1.1,1.2h10.37Zm16.51-8.4l7.2,13.87h-5.86l-6.86-13.2c-.1-.24-.24-.38-.53-.38h-1.06c-.24,0-.43.19-.43.43v13.15h-5.38v-35.04h9.79c7.58,0,10.32,2.93,10.32,10.9,0,6.48-2.21,9.41-7.2,10.27Zm1.73-10.27c0-4.13-.58-5.86-6.29-5.86h-2.26c-.48,0-.72.14-.72.58v10.08c0,.29.14.58.53.58h2.45c5.23,0,6.29-1.44,6.29-5.38Zm14.85-8.4c0,1.78-1.44,3.17-3.22,3.17s-3.17-1.39-3.17-3.17,1.44-3.17,3.17-3.17,3.22,1.39,3.22,3.17Zm-.48,5.18v27.36h-5.47v-27.36h5.47Zm23.95,9.89c0,15.02-1.49,17.95-8.59,18.29.14,3.22,3.36,3.7,4.56,3.7v5.09c-2.83,0-8.06-.53-8.06-7.82v-.96c-6.96-.43-8.45-3.7-8.45-18.29s1.73-18.29,10.32-18.29c9.02,0,10.22,2.78,10.22,18.29Zm-5.52,0c0-12.62-.86-12.82-4.8-12.82-3.46,0-4.75.58-4.75,12.82s1.2,12.82,4.75,12.82,4.8-.82,4.8-12.82Zm28.31-17.62v18.72c0,15.07-1.92,17.23-10.32,17.23s-10.22-2.5-10.22-17.23v-18.72h5.47v18.82c0,10.7,1.34,11.62,4.75,11.62s4.8-.72,4.8-11.62v-18.82h5.52Zm19.84,29.62v5.47h-16.94v-35.09h16.94v4.99h-10.27c-.62,0-1.2.67-1.2,1.25v9.46c0,.58.48,1.2,1.1,1.2h8.45v5.47h-8.4c-.67,0-1.15.58-1.15,1.3v4.75c0,.53.29,1.2,1.1,1.2h10.37Z"/>
  <path d="m602.34,690.8l6.44,29.24h-4.76l-1.48-6.52c-.08-.36-.28-.52-.6-.52h-6.76c-.28,0-.48.2-.56.48l-1.4,6.56h-4.6l5.52-24c.04-.12.04-.28.04-.4,0-.4-.28-.68-1.16-.68h-2.96v-4.16h12.28Zm-.76,18.12l-2.76-12.2c-.04-.12-.12-.2-.2-.2s-.16.08-.2.2l-2.76,12.24c0,.28.04.4.4.4h5.16c.36,0,.36-.2.36-.44Zm23.67,7v4.08h-15.04v-29.2h4.88v23.8c0,.8.56,1.32,1.44,1.32h8.72Zm13.5-25.16v4.24h-5.2c-.64,0-.88.6-.88,1v24h-4.56v-24.04c0-.56-.24-.96-.76-.96h-5.32v-4.24h16.72Zm15.7,24.68v4.56h-14.12v-29.24h14.12v4.16h-8.56c-.52,0-1,.56-1,1.04v7.88c0,.48.4,1,.92,1h7.04v4.56h-7c-.56,0-.96.48-.96,1.08v3.96c0,.44.24,1,.92,1h8.64Zm13.17-7l6,11.56h-4.88l-5.72-11c-.08-.2-.2-.32-.44-.32h-.88c-.2,0-.36.16-.36.36v10.96h-4.48v-29.2h8.16c6.32,0,8.6,2.44,8.6,9.08,0,5.4-1.84,7.84-6,8.56Zm1.44-8.56c0-3.44-.48-4.88-5.24-4.88h-1.88c-.4,0-.6.12-.6.48v8.4c0,.24.12.48.44.48h2.04c4.36,0,5.24-1.2,5.24-4.48Zm24.05-9.08v29.2h-4.56l-7.52-17.36c-.04-.08-.12-.12-.16-.12-.08,0-.16.04-.16.16v17.32h-4.56v-29.2h4.56l7.52,17.56c.04.08.12.16.2.16.04,0,.12-.08.12-.16v-17.56h4.56Zm15.68,0l6.44,29.2h-4.76l-1.48-6.56c-.04-.32-.28-.44-.56-.44h-6.76c-.24,0-.52.16-.56.36l-1.44,6.68h-4.6l6.72-29.24h7Zm-.72,18.16l-2.84-12.4c-.04-.08-.08-.12-.16-.12s-.16.04-.16.12l-2.8,12.44c0,.12.04.36.36.36h5.2c.28,0,.4-.16.4-.4Zm26.25-18.16v29.2h-4.56l-7.52-17.36c-.04-.08-.12-.12-.16-.12-.08,0-.16.04-.16.16v17.32h-4.56v-29.2h4.56l7.52,17.56c.04.08.12.16.2.16.04,0,.12-.08.12-.16v-17.56h4.56Zm14.56,21h4.68c-.48,7.6-2.52,8.92-8.36,8.92-7.08,0-8.52-2.16-8.52-15.28,0-11.6,1.44-15.24,8.6-15.24,5.96,0,7.76,1.44,8.28,8.44h-4.64c0-3.52-1.24-3.88-3.72-3.88-2.8,0-3.96.48-3.96,10.68s1.2,10.68,3.96,10.68,3.68-.8,3.68-4.32Zm21.19,3.64v4.56h-14.12v-29.24h14.12v4.16h-8.56c-.52,0-1,.56-1,1.04v7.88c0,.48.4,1,.92,1h7.04v4.56h-7c-.56,0-.96.48-.96,1.08v3.96c0,.44.24,1,.92,1h8.64Zm19.51-17.76v3.6c0,.32-.24.6-.6.6h-3.56c-.36,0-.6-.28-.6-.6v-3.6c0-.32.24-.6.6-.6h3.56c.36,0,.6.28.6.6Zm0,18.16v3.56c0,.36-.24.6-.6.6h-3.56c-.36,0-.6-.24-.6-.6v-3.56c0-.36.24-.6.6-.6h3.56c.36,0,.6.24.6.6Zm31.13-17.2h-4.64c0-3.52-1.24-3.88-3.72-3.88-2.8,0-3.96.48-3.96,10.68s1.16,10.68,3.96,10.68c2.64,0,3.68-.72,3.68-4v-2.28c0-.28-.16-.44-.4-.44h-3.28v-4.56h8.32c.08,1.08.12,2.24.12,3.4,0,10.8-1.84,12.48-8.44,12.48-7.08,0-8.52-2.16-8.52-15.28,0-11.6,1.44-15.24,8.6-15.24,5.96,0,7.76,1.44,8.28,8.44Zm13.04,9.8l6,11.56h-4.88l-5.72-11c-.08-.2-.2-.32-.44-.32h-.88c-.2,0-.36.16-.36.36v10.96h-4.48v-29.2h8.16c6.32,0,8.6,2.44,8.6,9.08,0,5.4-1.84,7.84-6,8.56Zm1.44-8.56c0-3.44-.48-4.88-5.24-4.88h-1.88c-.4,0-.6.12-.6.48v8.4c0,.24.12.48.44.48h2.04c4.36,0,5.24-1.2,5.24-4.48Zm19.73-9.08l6.44,29.2h-4.76l-1.48-6.56c-.04-.32-.28-.44-.56-.44h-6.76c-.24,0-.52.16-.56.36l-1.44,6.68h-4.6l6.72-29.24h7Zm-.72,18.16l-2.84-12.4c-.04-.08-.08-.12-.16-.12s-.16.04-.16.12l-2.8,12.44c0,.12.04.36.36.36h5.2c.28,0,.4-.16.4-.4Zm25.93-9.08c0,6.56-2.72,8.8-9.04,8.8h-2.72c-.32,0-.52.16-.52.48v10.84h-4.48v-29.2h8.2c6.28,0,8.56,2.44,8.56,9.08Zm-4.56,0c0-3.44-.44-4.88-5.2-4.88h-2.08c-.32,0-.44.16-.44.36v8.56c0,.32.16.44.4.44h2.12c4.36,0,5.2-1.2,5.2-4.48Zm22.51-9.08v29.2h-4.56v-9.8c0-.48-.16-.8-.72-.8h-5.24c-.36,0-.72.4-.72.8v9.8h-4.92v-29.2h4.92v13.4c0,.4.28.76.64.76h5.32c.44,0,.72-.24.72-.84v-13.32h4.56Zm7.99,2.08c0,1.48-1.2,2.64-2.68,2.64s-2.64-1.16-2.64-2.64,1.2-2.64,2.64-2.64,2.68,1.16,2.68,2.64Zm-.4,4.32v22.8h-4.56v-22.8h4.56Zm20.12,14.16c.04.56.08,1.12.08,1.64,0,4.76-2.52,7.72-8.8,7.72-6.76,0-8.56-1.88-8.56-8.8h4.72c0,3.28.36,4.36,3.84,4.36,3.2,0,3.88-1.2,3.88-3.36,0-1.48-.2-2.36-3.08-4.36l-2.68-1.88c-3.36-2.36-6.68-4.08-6.68-9.08,0-4.24,2.12-7.4,8.68-7.4s8.4,1.8,8.4,8.28h-4.64c0-3.6-1.36-3.88-3.88-3.88-2.84,0-3.72,1.12-3.72,3.04,0,1.36.4,2.28,4.08,4.68l3.04,2c2.6,1.72,5,3.96,5.32,7.04Zm17.52-20.6v4.24h-5.2c-.64,0-.88.6-.88,1v24h-4.56v-24.04c0-.56-.24-.96-.76-.96h-5.32v-4.24h16.72Zm15.7,24.68v4.56h-14.12v-29.24h14.12v4.16h-8.56c-.52,0-1,.56-1,1.04v7.88c0,.48.4,1,.92,1h7.04v4.56h-7c-.56,0-.96.48-.96,1.08v3.96c0,.44.24,1,.92,1h8.64Zm23.23-8.92v2c0,.36-.24.6-.6.6h-8.68c-.36,0-.6-.24-.6-.6v-2c0-.32.24-.6.6-.6h8.68c.36,0,.6.28.6.6Zm29.13,9.4v4.08h-15.04v-29.2h4.88v23.8c0,.8.56,1.32,1.44,1.32h8.72Zm18.72-10.44c0,11.16-3.28,14.52-8.56,14.52h-8.2v-29.2h8.2c4.96,0,8.56,1.96,8.56,14.68Zm-4.56,0c0-7.32-.44-10.48-5.2-10.48h-1.92c-.32,0-.52.16-.52.48v19.8c0,.28.16.44.4.44h2.04c4.36,0,5.2-3.76,5.2-10.24Zm25.58-14.68h4.64l-5.2,29.2h-4.76l-2.36-14.32c-.04-.12-.12-.2-.2-.2-.12,0-.24.08-.24.2l-2.56,14.32h-4.76l-4.8-29.2h4.64l2.32,16.68c0,.2.12.28.28.28.12,0,.28-.12.32-.32l2.56-16.64h4.64l2.32,16.68c0,.2.12.28.28.28.12,0,.28-.12.32-.32l2.56-16.64Zm22.61,20.56c.04.56.08,1.12.08,1.64,0,4.76-2.52,7.72-8.8,7.72-6.76,0-8.56-1.88-8.56-8.8h4.72c0,3.28.36,4.36,3.84,4.36,3.2,0,3.88-1.2,3.88-3.36,0-1.48-.2-2.36-3.08-4.36l-2.68-1.88c-3.36-2.36-6.68-4.08-6.68-9.08,0-4.24,2.12-7.4,8.68-7.4s8.4,1.8,8.4,8.28h-4.64c0-3.6-1.36-3.88-3.88-3.88-2.84,0-3.72,1.12-3.72,3.04,0,1.36.4,2.28,4.08,4.68l3.04,2c2.6,1.72,5,3.96,5.32,7.04Zm-467.03,48c.04.56.08,1.12.08,1.64,0,4.76-2.52,7.72-8.8,7.72-6.76,0-8.56-1.88-8.56-8.8h4.72c0,3.28.36,4.36,3.84,4.36,3.2,0,3.88-1.2,3.88-3.36,0-1.48-.2-2.36-3.08-4.36l-2.68-1.88c-3.36-2.36-6.68-4.08-6.68-9.08,0-4.24,2.12-7.4,8.68-7.4s8.4,1.8,8.4,8.28h-4.64c0-3.6-1.36-3.88-3.88-3.88-2.84,0-3.72,1.12-3.72,3.04,0,1.36.4,2.28,4.08,4.68l3.04,2c2.6,1.72,5,3.96,5.32,7.04Zm16.19,4.08v4.56h-14.12v-29.24h14.12v4.16h-8.56c-.52,0-1,.56-1,1.04v7.88c0,.48.4,1,.92,1h7.04v4.56h-7c-.56,0-.96.48-.96,1.08v3.96c0,.44.24,1,.92,1h8.64Zm18.97-15.56c0,6.56-2.72,8.8-9.04,8.8h-2.72c-.32,0-.52.16-.52.48v10.84h-4.48v-29.2h8.2c6.28,0,8.56,2.44,8.56,9.08Zm-4.56,0c0-3.44-.44-4.88-5.2-4.88h-2.08c-.32,0-.44.16-.44.36v8.56c0,.32.16.44.4.44h2.12c4.36,0,5.2-1.2,5.2-4.48Zm22.47-9.12v4.24h-5.2c-.64,0-.88.6-.88,1v24h-4.56v-24.04c0-.56-.24-.96-.76-.96h-5.32v-4.24h16.72Zm8.22,25.08v3.56c0,.36-.24.6-.6.6h-3.56c-.36,0-.6-.24-.6-.6v-3.56c0-.36.24-.6.6-.6h3.56c.36,0,.6.24.6.6Zm20.83-10.36c0,11.16-3.28,14.52-8.56,14.52h-8.2v-29.2h8.2c4.96,0,8.56,1.96,8.56,14.68Zm-4.56,0c0-7.32-.44-10.48-5.2-10.48h-1.92c-.32,0-.52.16-.52.48v19.8c0,.28.16.44.4.44h2.04c4.36,0,5.2-3.76,5.2-10.24Zm14.18-21h4.16l-3.16,5.04h-2.52l1.52-5.04Zm6.88,30.96v4.56h-14.12v-29.24h14.12v4.24h-8.56c-.52,0-1,.56-1,1.04v7.8c0,.48.4,1,.92,1h7.04v4.56h-7c-.56,0-.96.48-.96,1.08v3.96c0,.44.24,1,.92,1h8.64Zm14.44-3.64h4.68c-.48,7.6-2.52,8.92-8.36,8.92-7.08,0-8.52-2.16-8.52-15.28,0-11.6,1.44-15.24,8.6-15.24,5.96,0,7.76,1.44,8.28,8.44h-4.64c0-3.52-1.24-3.88-3.72-3.88-2.8,0-3.96.48-3.96,10.68s1.2,10.68,3.96,10.68,3.68-.8,3.68-4.32Zm13.71,4.04v3.56c0,.36-.24.6-.6.6h-3.56c-.36,0-.6-.24-.6-.6v-3.56c0-.36.24-.6.6-.6h3.56c.36,0,.6.24.6.6Zm25.05-9.32v2c0,.36-.24.6-.6.6h-8.68c-.36,0-.6-.24-.6-.6v-2c0-.32.24-.6.6-.6h8.68c.36,0,.6.28.6.6Zm32.25-9.32c0,5.6-1.12,7.92-6.64,11.36l-4.12,2.56c-1.56.96-2.48,2.04-2.48,3.68v1.28h6.84c1.2,0,1.64-.64,1.64-1.8v-1.6h4.2v7.32h-17.32v-6.36c0-2.12,1.28-4.36,4.44-6.44l2.88-1.88c4.8-3.12,5.56-4.64,5.56-6.6,0-1.52-.28-3.8-3.92-3.8-4.32,0-4.12,3.08-4.12,4.96v.68h-4.52c0-4.88.36-10.12,8.92-10.12,7.52,0,8.64,3.24,8.64,6.76Zm19.67-1.12v18c0,5.56-3.2,6.44-8.24,6.44-6.84,0-8.32-1.6-8.32-6.44v-18c0-3.76,2.12-5.56,8.36-5.56,5.4,0,8.2,1.8,8.2,5.56Zm-4.6,15.36v-11.12c0-4.16-.68-5.32-3.56-5.32-3.2,0-3.72.88-3.72,5.32v11.12c0,3.64,1.16,4.52,3.68,4.52s3.6-1.48,3.6-4.52Zm25.87-14.24c0,5.6-1.12,7.92-6.64,11.36l-4.12,2.56c-1.56.96-2.48,2.04-2.48,3.68v1.28h6.84c1.2,0,1.64-.64,1.64-1.8v-1.6h4.2v7.32h-17.32v-6.36c0-2.12,1.28-4.36,4.44-6.44l2.88-1.88c4.8-3.12,5.56-4.64,5.56-6.6,0-1.52-.28-3.8-3.92-3.8-4.32,0-4.12,3.08-4.12,4.96v.68h-4.52c0-4.88.36-10.12,8.92-10.12,7.52,0,8.64,3.24,8.64,6.76Zm20.62,0c0,5.6-1.12,7.92-6.64,11.36l-4.12,2.56c-1.56.96-2.48,2.04-2.48,3.68v1.28h6.84c1.2,0,1.64-.64,1.64-1.8v-1.6h4.2v7.32h-17.32v-6.36c0-2.12,1.28-4.36,4.44-6.44l2.88-1.88c4.8-3.12,5.56-4.64,5.56-6.6,0-1.52-.28-3.8-3.92-3.8-4.32,0-4.12,3.08-4.12,4.96v.68h-4.52c0-4.88.36-10.12,8.92-10.12,7.52,0,8.64,3.24,8.64,6.76Z"/>
  <path d="m462.34,521.8l6.44,29.24h-4.76l-1.48-6.52c-.08-.36-.28-.52-.6-.52h-6.76c-.28,0-.48.2-.56.48l-1.4,6.56h-4.6l5.52-24c.04-.12.04-.28.04-.4,0-.4-.28-.68-1.16-.68h-2.96v-4.16h12.28Zm-.76,18.12l-2.76-12.2c-.04-.12-.12-.2-.2-.2s-.16.08-.2.2l-2.76,12.24c0,.28.04.4.4.4h5.16c.36,0,.36-.2.36-.44Zm23.67,7v4.08h-15.04v-29.2h4.88v23.8c0,.8.56,1.32,1.44,1.32h8.72Zm13.5-25.16v4.24h-5.2c-.64,0-.88.6-.88,1v24h-4.56v-24.04c0-.56-.24-.96-.76-.96h-5.32v-4.24h16.72Zm15.7,24.68v4.56h-14.12v-29.24h14.12v4.16h-8.56c-.52,0-1,.56-1,1.04v7.88c0,.48.4,1,.92,1h7.04v4.56h-7c-.56,0-.96.48-.96,1.08v3.96c0,.44.24,1,.92,1h8.64Zm13.17-7l6,11.56h-4.88l-5.72-11c-.08-.2-.2-.32-.44-.32h-.88c-.2,0-.36.16-.36.36v10.96h-4.48v-29.2h8.16c6.32,0,8.6,2.44,8.6,9.08,0,5.4-1.84,7.84-6,8.56Zm1.44-8.56c0-3.44-.48-4.88-5.24-4.88h-1.88c-.4,0-.6.12-.6.48v8.4c0,.24.12.48.44.48h2.04c4.36,0,5.24-1.2,5.24-4.48Zm24.05-9.08v29.2h-4.56l-7.52-17.36c-.04-.08-.12-.12-.16-.12-.08,0-.16.04-.16.16v17.32h-4.56v-29.2h4.56l7.52,17.56c.04.08.12.16.2.16.04,0,.12-.08.12-.16v-17.56h4.56Zm15.68,0l6.44,29.2h-4.76l-1.48-6.56c-.04-.32-.28-.44-.56-.44h-6.76c-.24,0-.52.16-.56.36l-1.44,6.68h-4.6l6.72-29.24h7Zm-.72,18.16l-2.84-12.4c-.04-.08-.08-.12-.16-.12s-.16.04-.16.12l-2.8,12.44c0,.12.04.36.36.36h5.2c.28,0,.4-.16.4-.4Zm26.25-18.16v29.2h-4.56l-7.52-17.36c-.04-.08-.12-.12-.16-.12-.08,0-.16.04-.16.16v17.32h-4.56v-29.2h4.56l7.52,17.56c.04.08.12.16.2.16.04,0,.12-.08.12-.16v-17.56h4.56Zm14.56,21h4.68c-.48,7.6-2.52,8.92-8.36,8.92-7.08,0-8.52-2.16-8.52-15.28,0-11.6,1.44-15.24,8.6-15.24,5.96,0,7.76,1.44,8.28,8.44h-4.64c0-3.52-1.24-3.88-3.72-3.88-2.8,0-3.96.48-3.96,10.68s1.2,10.68,3.96,10.68,3.68-.8,3.68-4.32Zm21.19,3.64v4.56h-14.12v-29.24h14.12v4.16h-8.56c-.52,0-1,.56-1,1.04v7.88c0,.48.4,1,.92,1h7.04v4.56h-7c-.56,0-.96.48-.96,1.08v3.96c0,.44.24,1,.92,1h8.64Zm19.51-17.76v3.6c0,.32-.24.6-.6.6h-3.56c-.36,0-.6-.28-.6-.6v-3.6c0-.32.24-.6.6-.6h3.56c.36,0,.6.28.6.6Zm0,18.16v3.56c0,.36-.24.6-.6.6h-3.56c-.36,0-.6-.24-.6-.6v-3.56c0-.36.24-.6.6-.6h3.56c.36,0,.6.24.6.6Zm33.33-25.04h4.64l-5.2,29.2h-4.76l-2.36-14.32c-.04-.12-.12-.2-.2-.2-.12,0-.24.08-.24.2l-2.56,14.32h-4.76l-4.8-29.2h4.64l2.32,16.68c0,.2.12.28.28.28.12,0,.28-.12.32-.32l2.56-16.64h4.64l2.32,16.68c0,.2.12.28.28.28.12,0,.28-.12.32-.32l2.56-16.64Zm19.89,24.64v4.56h-14.12v-29.24h14.12v4.16h-8.56c-.52,0-1,.56-1,1.04v7.88c0,.48.4,1,.92,1h7.04v4.56h-7c-.56,0-.96.48-.96,1.08v3.96c0,.44.24,1,.92,1h8.64Zm19.01-3.24c0,5.44-2.84,7.8-8.08,7.8h-8.84v-29.2h8.16c6.28,0,8.56,1.36,8.56,8.68,0,3.56-1.76,5.76-4.08,6.12v.24c2.52.16,4.28,1.64,4.28,6.36Zm-4.76-13.28c0-3.04-.44-3.92-5.2-3.92h-2.04c-.28,0-.44.16-.44.48v7.64c0,.28.16.44.36.44h2.12c4.36,0,5.2-.72,5.2-4.64Zm-.04,12.72c0-2.92-1.08-3.76-4.44-3.76h-2.8c-.24,0-.4.12-.4.32v7c0,.24.16.44.4.44h2.92c4,0,4.32-.88,4.32-4Zm34.49-6.16c0,11.16-3.28,14.52-8.56,14.52h-8.2v-29.2h8.2c4.96,0,8.56,1.96,8.56,14.68Zm-4.56,0c0-7.32-.44-10.48-5.2-10.48h-1.92c-.32,0-.52.16-.52.48v19.8c0,.28.16.44.4.44h2.04c4.36,0,5.2-3.76,5.2-10.24Zm21.06,9.96v4.56h-14.12v-29.24h14.12v4.16h-8.56c-.52,0-1,.56-1,1.04v7.88c0,.48.4,1,.92,1h7.04v4.56h-7c-.56,0-.96.48-.96,1.08v3.96c0,.44.24,1,.92,1h8.64Zm18.93-4.08c.04.56.08,1.12.08,1.64,0,4.76-2.52,7.72-8.8,7.72-6.76,0-8.56-1.88-8.56-8.8h4.72c0,3.28.36,4.36,3.84,4.36,3.2,0,3.88-1.2,3.88-3.36,0-1.48-.2-2.36-3.08-4.36l-2.68-1.88c-3.36-2.36-6.68-4.08-6.68-9.08,0-4.24,2.12-7.4,8.68-7.4s8.4,1.8,8.4,8.28h-4.64c0-3.6-1.36-3.88-3.88-3.88-2.84,0-3.72,1.12-3.72,3.04,0,1.36.4,2.28,4.08,4.68l3.04,2c2.6,1.72,5,3.96,5.32,7.04Zm7.59-18.48c0,1.48-1.2,2.64-2.68,2.64s-2.64-1.16-2.64-2.64,1.2-2.64,2.64-2.64,2.68,1.16,2.68,2.64Zm-.4,4.32v22.8h-4.56v-22.8h4.56Zm20.48-6.4v29.2h-4.56l-7.52-17.36c-.04-.08-.12-.12-.16-.12-.08,0-.16.04-.16.16v17.32h-4.56v-29.2h4.56l7.52,17.56c.04.08.12.16.2.16.04,0,.12-.08.12-.16v-17.56h4.56Zm19.4,7.84h-4.64c0-3.52-1.24-3.88-3.72-3.88-2.8,0-3.96.48-3.96,10.68s1.2,10.68,3.96,10.68,3.68-.72,3.68-4v-2.08c0-.4-.16-.64-.56-.64h-3.12v-4.56h8.32c.08,1.16.16,2.36.16,3.6,0,10.64-1.96,12.28-8.48,12.28-7.08,0-8.52-2.16-8.52-15.28,0-11.6,1.44-15.24,8.6-15.24,5.96,0,7.76,1.44,8.28,8.44Zm23.53,7.88v2c0,.36-.24.6-.6.6h-8.68c-.36,0-.6-.24-.6-.6v-2c0-.32.24-.6.6-.6h8.68c.36,0,.6.28.6.6Zm27.01-15.72l6.44,29.2h-4.76l-1.48-6.56c-.04-.32-.28-.44-.56-.44h-6.76c-.24,0-.52.16-.56.36l-1.44,6.68h-4.6l6.72-29.24h7Zm-.72,18.16l-2.84-12.4c-.04-.08-.08-.12-.16-.12s-.16.04-.16.12l-2.8,12.44c0,.12.04.36.36.36h5.2c.28,0,.4-.16.4-.4Zm25.97-3.48c0,11.16-3.28,14.52-8.56,14.52h-8.2v-29.2h8.2c4.96,0,8.56,1.96,8.56,14.68Zm-4.56,0c0-7.32-.44-10.48-5.2-10.48h-1.92c-.32,0-.52.16-.52.48v19.8c0,.28.16.44.4.44h2.04c4.36,0,5.2-3.76,5.2-10.24Zm19.28-14.68h4.68l-7.6,29.2h-4.8l-7.2-29.2h4.68l4.68,19.08c.04.2.16.28.28.28s.24-.12.32-.32l4.96-19.04Zm19.82,24.64v4.56h-14.12v-29.24h14.12v4.16h-8.56c-.52,0-1,.56-1,1.04v7.88c0,.48.4,1,.92,1h7.04v4.56h-7c-.56,0-.96.48-.96,1.08v3.96c0,.44.24,1,.92,1h8.64Zm18.89-10c0,13.52-1.4,15.28-8.6,15.28s-8.52-2.16-8.52-15.28c0-11.6,1.44-15.24,8.6-15.24,7.52,0,8.52,2.32,8.52,15.24Zm-4.6,0c0-10.52-.72-10.68-4-10.68-2.88,0-3.96.48-3.96,10.68s1.04,10.68,3.96,10.68,4-.68,4-10.68Zm-492.44,33.32v21.28c0,5.92-1.92,8.68-8.68,8.68s-8.52-2.24-8.52-9.68v-.4h4.56v.32c0,4.08,1.24,5.16,4.12,5.16,3.04,0,3.84-1.6,3.84-4.12v-21.24h4.68Zm15.27.04l6.44,29.2h-4.76l-1.48-6.56c-.04-.32-.28-.44-.56-.44h-6.76c-.24,0-.52.16-.56.36l-1.44,6.68h-4.6l6.72-29.24h7Zm-.72,18.16l-2.84-12.4c-.04-.08-.08-.12-.16-.12s-.16.04-.16.12l-2.8,12.44c0,.12.04.36.36.36h5.2c.28,0,.4-.16.4-.4Zm26.25-18.16v29.2h-4.56l-7.52-17.36c-.04-.08-.12-.12-.16-.12-.08,0-.16.04-.16.16v17.32h-4.56v-29.2h4.56l7.52,17.56c.04.08.12.16.2.16.04,0,.12-.08.12-.16v-17.56h4.56Zm16.12,0h4.68l-7.6,29.2h-4.8l-7.2-29.2h4.68l4.68,19.08c.04.2.16.28.28.28s.24-.12.32-.32l4.96-19.04Zm12.34,25.04v3.56c0,.36-.24.6-.6.6h-3.56c-.36,0-.6-.24-.6-.6v-3.56c0-.36.24-.6.6-.6h3.56c.36,0,.6.24.6.6Zm16.79-25.04l6.44,29.2h-4.76l-1.48-6.56c-.04-.32-.28-.44-.56-.44h-6.76c-.24,0-.52.16-.56.36l-1.44,6.68h-4.6l6.72-29.24h7Zm-.72,18.16l-2.84-12.4c-.04-.08-.08-.12-.16-.12s-.16.04-.16.12l-2.8,12.44c0,.12.04.36.36.36h5.2c.28,0,.4-.16.4-.4Zm25.38-18.2v15.6c0,12.56-1.6,14.36-8.6,14.36s-8.52-2.08-8.52-14.36v-15.6h4.56v15.68c0,8.92,1.12,9.68,3.96,9.68s4-.6,4-9.68v-15.68h4.6Zm18.74,0v21.28c0,5.92-1.92,8.68-8.68,8.68s-8.52-2.24-8.52-9.68v-.4h4.56v.32c0,4.08,1.24,5.16,4.12,5.16,3.04,0,3.84-1.6,3.84-4.12v-21.24h4.68Zm19.19,14.68c0,13.52-1.4,15.28-8.6,15.28s-8.52-2.16-8.52-15.28c0-11.6,1.44-15.24,8.6-15.24,7.52,0,8.52,2.32,8.52,15.24Zm-4.6,0c0-10.52-.72-10.68-4-10.68-2.88,0-3.96.48-3.96,10.68s1.04,10.68,3.96,10.68,4-.68,4-10.68Zm23.86-14.68v15.6c0,12.56-1.6,14.36-8.6,14.36s-8.52-2.08-8.52-14.36v-15.6h4.56v15.68c0,8.92,1.12,9.68,3.96,9.68s4-.6,4-9.68v-15.68h4.6Zm13.5,17.68l6,11.56h-4.88l-5.72-11c-.08-.2-.2-.32-.44-.32h-.88c-.2,0-.36.16-.36.36v10.96h-4.48v-29.2h8.16c6.32,0,8.6,2.44,8.6,9.08,0,5.4-1.84,7.84-6,8.56Zm1.44-8.56c0-3.44-.48-4.88-5.24-4.88h-1.88c-.4,0-.6.12-.6.48v8.4c0,.24.12.48.44.48h2.04c4.36,0,5.24-1.2,5.24-4.48Zm23.78,5.6c0,11.16-3.28,14.52-8.56,14.52h-8.2v-29.2h8.2c4.96,0,8.56,1.96,8.56,14.68Zm-4.56,0c0-7.32-.44-10.48-5.2-10.48h-1.92c-.32,0-.52.16-.52.48v19.8c0,.28.16.44.4.44h2.04c4.36,0,5.2-3.76,5.2-10.24Zm13.26-16.6v3.6c0,.4-.24,1.16-.68,1.92l-2.2,3.8h-1.36l1.36-5.08-1.28-.04c-.36,0-.6-.28-.6-.6v-3.6c0-.32.24-.6.6-.6h3.56c.36,0,.6.28.6.6Zm19.37,1.92v29.2h-4.56v-9.8c0-.48-.16-.8-.72-.8h-5.24c-.36,0-.72.4-.72.8v9.8h-4.92v-29.2h4.92v13.4c0,.4.28.76.64.76h5.32c.44,0,.72-.24.72-.84v-13.32h4.56Zm19.32-.04v15.6c0,12.56-1.6,14.36-8.6,14.36s-8.52-2.08-8.52-14.36v-15.6h4.56v15.68c0,8.92,1.12,9.68,3.96,9.68s4-.6,4-9.68v-15.68h4.6Zm7.94,2.12c0,1.48-1.2,2.64-2.68,2.64s-2.64-1.16-2.64-2.64,1.2-2.64,2.64-2.64,2.68,1.16,2.68,2.64Zm-.4,4.32v22.8h-4.56v-22.8h4.56Z"/>
  <path d="m207.29,324.53c0,16.22-1.68,18.34-10.32,18.34s-10.22-2.59-10.22-18.34c0-13.92,1.73-18.29,10.32-18.29,9.02,0,10.22,2.78,10.22,18.29Zm-5.52,0c0-12.62-.86-12.82-4.8-12.82-3.46,0-4.75.58-4.75,12.82s1.25,12.82,4.75,12.82,4.8-.82,4.8-12.82Zm28.73,8.11c0,6.53-3.41,9.36-9.7,9.36h-10.61v-35.04h9.79c7.54,0,10.27,1.63,10.27,10.42,0,4.27-2.11,6.91-4.9,7.34v.29c3.02.19,5.14,1.97,5.14,7.63Zm-5.71-15.94c0-3.65-.53-4.7-6.24-4.7h-2.45c-.34,0-.53.19-.53.58v9.17c0,.34.19.53.43.53h2.54c5.23,0,6.24-.86,6.24-5.57Zm-.05,15.26c0-3.5-1.3-4.51-5.33-4.51h-3.36c-.29,0-.48.14-.48.38v8.4c0,.29.19.53.48.53h3.5c4.8,0,5.18-1.06,5.18-4.8Zm27.39-25.06v5.09h-6.24c-.77,0-1.06.72-1.06,1.2v28.8h-5.47v-28.85c0-.67-.29-1.15-.91-1.15h-6.38v-5.09h20.06Zm18.84,29.62v5.47h-16.94v-35.09h16.94v4.99h-10.27c-.62,0-1.2.67-1.2,1.25v9.46c0,.58.48,1.2,1.1,1.2h8.45v5.47h-8.4c-.67,0-1.15.58-1.15,1.3v4.75c0,.53.29,1.2,1.1,1.2h10.37Zm23.15-29.57v35.04h-5.47l-9.02-20.83c-.05-.1-.14-.14-.19-.14-.1,0-.19.05-.19.19v20.78h-5.47v-35.04h5.47l9.02,21.07c.05.1.14.19.24.19.05,0,.14-.1.14-.19v-21.07h5.47Zm23.57-.05v18.72c0,15.07-1.92,17.23-10.32,17.23s-10.22-2.5-10.22-17.23v-18.72h5.47v18.82c0,10.7,1.34,11.62,4.75,11.62s4.8-.72,4.8-11.62v-18.82h5.52Zm19.85,29.62v5.47h-16.94v-35.09h16.94v4.99h-10.27c-.62,0-1.2.67-1.2,1.25v9.46c0,.58.48,1.2,1.1,1.2h8.45v5.47h-8.4c-.67,0-1.15.58-1.15,1.3v4.75c0,.53.29,1.2,1.1,1.2h10.37Zm23.42-21.31v4.32c0,.38-.29.72-.72.72h-4.27c-.43,0-.72-.34-.72-.72v-4.32c0-.38.29-.72.72-.72h4.27c.43,0,.72.34.72.72Zm0,21.79v4.27c0,.43-.29.72-.72.72h-4.27c-.43,0-.72-.29-.72-.72v-4.27c0-.43.29-.72.72-.72h4.27c.43,0,.72.29.72.72Zm41.1-4.37c0,6.53-3.41,9.36-9.7,9.36h-10.61v-28.66c0-.62-.38-1.34-1.2-1.34h-3.07v-5.04h14.06c7.54,0,10.27,1.63,10.27,10.42,0,4.27-2.11,6.91-4.9,7.34v.29c3.02.19,5.14,1.97,5.14,7.63Zm-5.66-15.94c0-3.65-.62-4.7-6.29-4.7h-2.4c-.34,0-.58.24-.58.53v9.31c0,.34.14.43.48.43h2.5c5.23,0,6.24-.86,6.29-5.57Zm-.1,15.26c0-3.5-1.3-4.51-5.33-4.51h-3.31c-.24,0-.53.24-.53.48v8.3c0,.34.19.53.48.53h3.5c4.8,0,5.18-1.06,5.18-4.8Zm23.62-25.01l7.73,35.04h-5.71l-1.78-7.87c-.05-.38-.34-.53-.67-.53h-8.11c-.29,0-.62.19-.67.43l-1.73,8.02h-5.52l8.06-35.09h8.4Zm-.86,21.79l-3.41-14.88c-.05-.1-.1-.14-.19-.14s-.19.05-.19.14l-3.36,14.93c0,.14.05.43.43.43h6.24c.34,0,.48-.19.48-.48Zm24.36,3.41h5.62c-.58,9.12-3.02,10.7-10.03,10.7-8.5,0-10.22-2.59-10.22-18.34,0-13.92,1.73-18.29,10.32-18.29,7.15,0,9.31,1.73,9.94,10.13h-5.57c0-4.22-1.49-4.66-4.46-4.66-3.36,0-4.75.58-4.75,12.82s1.44,12.82,4.75,12.82,4.42-.96,4.42-5.18Zm41.68-14.3c0,7.87-3.26,10.56-10.85,10.56h-3.26c-.38,0-.62.19-.62.58v13.01h-5.38v-35.04h9.84c7.54,0,10.27,2.93,10.27,10.9Zm-5.47,0c0-4.13-.53-5.86-6.24-5.86h-2.5c-.38,0-.53.19-.53.43v10.27c0,.38.19.53.48.53h2.54c5.23,0,6.24-1.44,6.24-5.38Zm21.01,10.27l7.2,13.87h-5.86l-6.86-13.2c-.1-.24-.24-.38-.53-.38h-1.06c-.24,0-.43.19-.43.43v13.15h-5.38v-35.04h9.79c7.58,0,10.32,2.93,10.32,10.9,0,6.48-2.21,9.41-7.2,10.27Zm1.73-10.27c0-4.13-.58-5.86-6.29-5.86h-2.26c-.48,0-.72.14-.72.58v10.08c0,.29.14.58.53.58h2.45c5.23,0,6.29-1.44,6.29-5.38Zm28.39,6.67c0,16.22-1.68,18.34-10.32,18.34s-10.22-2.59-10.22-18.34c0-13.92,1.73-18.29,10.32-18.29,9.02,0,10.22,2.78,10.22,18.29Zm-5.52,0c0-12.62-.86-12.82-4.8-12.82-3.46,0-4.75.58-4.75,12.82s1.25,12.82,4.75,12.82,4.8-.82,4.8-12.82Zm35.47,7.63h5.62c-.58,9.12-3.02,10.7-10.03,10.7-8.5,0-10.22-2.59-10.22-18.34,0-13.92,1.73-18.29,10.32-18.29,7.15,0,9.31,1.73,9.94,10.13h-5.57c0-4.22-1.49-4.66-4.46-4.66-3.36,0-4.75.58-4.75,12.82s1.44,12.82,4.75,12.82,4.42-.96,4.42-5.18Zm28.64-7.63c0,16.22-1.68,18.34-10.32,18.34s-10.22-2.59-10.22-18.34c0-13.92,1.73-18.29,10.32-18.29,9.02,0,10.22,2.78,10.22,18.29Zm-5.52,0c0-12.62-.86-12.82-4.8-12.82-3.46,0-4.75.58-4.75,12.82s1.25,12.82,4.75,12.82,4.8-.82,4.8-12.82Zm31.99-17.62v35.14h-5.47v-12.19c0-.38-.19-.58-.38-.58-.14,0-.34.14-.38.38l-3.5,12.38h-3.5l-3.7-12.24c-.1-.38-.29-.58-.43-.58-.19,0-.38.29-.38.77v12.05h-5.47v-35.14h5.47l5.66,20.11c.14.58.43.86.72.86.24,0,.53-.29.67-.86l5.23-20.11h5.47Zm27.19,0v35.14h-5.47v-12.19c0-.38-.19-.58-.38-.58-.14,0-.34.14-.38.38l-3.5,12.38h-3.5l-3.7-12.24c-.1-.38-.29-.58-.43-.58-.19,0-.38.29-.38.77v12.05h-5.47v-35.14h5.47l5.66,20.11c.14.58.43.86.72.86.24,0,.53-.29.67-.86l5.23-20.11h5.47Zm23.83,0v18.72c0,15.07-1.92,17.23-10.32,17.23s-10.22-2.5-10.22-17.23v-18.72h5.47v18.82c0,10.7,1.34,11.62,4.75,11.62s4.8-.72,4.8-11.62v-18.82h5.52Zm23.54.05v35.04h-5.47l-9.02-20.83c-.05-.1-.14-.14-.19-.14-.1,0-.19.05-.19.19v20.78h-5.47v-35.04h5.47l9.02,21.07c.05.1.14.19.24.19.05,0,.14-.1.14-.19v-21.07h5.47Zm9.98,2.5c0,1.78-1.44,3.17-3.22,3.17s-3.17-1.39-3.17-3.17,1.44-3.17,3.17-3.17,3.22,1.39,3.22,3.17Zm-.48,5.18v27.36h-5.47v-27.36h5.47Zm18.05,17.52h5.62c-.58,9.12-3.02,10.7-10.03,10.7-8.5,0-10.22-2.59-10.22-18.34,0-13.92,1.73-18.29,10.32-18.29,7.15,0,9.31,1.73,9.94,10.13h-5.57c0-4.22-1.49-4.66-4.46-4.66-3.36,0-4.75.58-4.75,12.82s1.44,12.82,4.75,12.82,4.42-.96,4.42-5.18Zm23.23-25.2l7.73,35.04h-5.71l-1.78-7.87c-.05-.38-.34-.53-.67-.53h-8.11c-.29,0-.62.19-.67.43l-1.73,8.02h-5.52l8.06-35.09h8.4Zm-.86,21.79l-3.41-14.88c-.05-.1-.1-.14-.19-.14s-.19.05-.19.14l-3.36,14.93c0,.14.05.43.43.43h6.24c.34,0,.48-.19.48-.48Zm26.36-21.84v5.09h-6.24c-.77,0-1.06.72-1.06,1.2v28.8h-5.47v-28.85c0-.67-.29-1.15-.91-1.15h-6.38v-5.09h20.06Zm8.14,2.54c0,1.78-1.44,3.17-3.22,3.17s-3.17-1.39-3.17-3.17,1.44-3.17,3.17-3.17,3.22,1.39,3.22,3.17Zm-.48,5.18v27.36h-5.47v-27.36h5.47Zm24.09,9.89c0,16.22-1.68,18.34-10.32,18.34s-10.22-2.59-10.22-18.34c0-13.92,1.73-18.29,10.32-18.29,9.02,0,10.22,2.78,10.22,18.29Zm-5.52,0c0-12.62-.86-12.82-4.8-12.82-3.46,0-4.75.58-4.75,12.82s1.25,12.82,4.75,12.82,4.8-.82,4.8-12.82Zm29.06-17.57v35.04h-5.47l-9.02-20.83c-.05-.1-.14-.14-.19-.14-.1,0-.19.05-.19.19v20.78h-5.47v-35.04h5.47l9.02,21.07c.05.1.14.19.24.19.05,0,.14-.1.14-.19v-21.07h5.47Zm32.28,0h5.62l-9.12,35.04h-5.76l-8.64-35.04h5.62l5.62,22.9c.05.24.19.34.34.34s.29-.14.38-.38l5.95-22.85Zm13.47,2.5c0,1.78-1.44,3.17-3.22,3.17s-3.17-1.39-3.17-3.17,1.44-3.17,3.17-3.17,3.22,1.39,3.22,3.17Zm-.48,5.18v27.36h-5.47v-27.36h5.47Zm24.14,16.99c.05.67.1,1.34.1,1.97,0,5.71-3.02,9.26-10.56,9.26-8.11,0-10.27-2.26-10.27-10.56h5.66c0,3.94.43,5.23,4.61,5.23,3.84,0,4.66-1.44,4.66-4.03,0-1.78-.24-2.83-3.7-5.23l-3.22-2.26c-4.03-2.83-8.02-4.9-8.02-10.9,0-5.09,2.54-8.88,10.42-8.88s10.08,2.16,10.08,9.94h-5.57c0-4.32-1.63-4.66-4.66-4.66-3.41,0-4.46,1.34-4.46,3.65,0,1.63.48,2.74,4.9,5.62l3.65,2.4c3.12,2.06,6,4.75,6.38,8.45Zm22.69-24.72v18.72c0,15.07-1.92,17.23-10.32,17.23s-10.22-2.5-10.22-17.23v-18.72h5.47v18.82c0,10.7,1.34,11.62,4.75,11.62s4.8-.72,4.8-11.62v-18.82h5.52Zm19.84,29.62v5.47h-16.94v-35.09h16.94v4.99h-10.27c-.62,0-1.2.67-1.2,1.25v9.46c0,.58.48,1.2,1.1,1.2h8.45v5.47h-8.4c-.67,0-1.15.58-1.15,1.3v4.75c0,.53.29,1.2,1.1,1.2h10.37Zm20.51.58v4.9h-18.05v-35.04h5.86v28.56c0,.96.67,1.58,1.73,1.58h10.46Zm20.16,0v4.9h-18.05v-35.04h5.86v28.56c0,.96.67,1.58,1.72,1.58h10.47Zm19.1-.58v5.47h-16.95v-35.09h16.95v4.99h-10.27c-.63,0-1.2.67-1.2,1.25v9.46c0,.58.48,1.2,1.1,1.2h8.45v5.47h-8.4c-.67,0-1.15.58-1.15,1.3v4.75c0,.53.28,1.2,1.1,1.2h10.37Z"/>
  <path d="m410.7,880.36c.04.56.08,1.12.08,1.64,0,4.76-2.52,7.72-8.8,7.72-6.76,0-8.56-1.88-8.56-8.8h4.72c0,3.28.36,4.36,3.84,4.36,3.2,0,3.88-1.2,3.88-3.36,0-1.48-.2-2.36-3.08-4.36l-2.68-1.88c-3.36-2.36-6.68-4.08-6.68-9.08,0-4.24,2.12-7.4,8.68-7.4s8.4,1.8,8.4,8.28h-4.64c0-3.6-1.36-3.88-3.88-3.88-2.84,0-3.72,1.12-3.72,3.04,0,1.36.4,2.28,4.08,4.68l3.04,2c2.6,1.72,5,3.96,5.32,7.04Zm18.11-20.6v4.24h-5.2c-.64,0-.88.6-.88,1v24h-4.56v-24.04c0-.56-.24-.96-.76-.96h-5.32v-4.24h16.72Zm11.33.04l6.44,29.2h-4.76l-1.48-6.56c-.04-.32-.28-.44-.56-.44h-6.76c-.24,0-.52.16-.56.36l-1.44,6.68h-4.6l6.72-29.24h7Zm-.72,18.16l-2.84-12.4c-.04-.08-.08-.12-.16-.12s-.16.04-.16.12l-2.8,12.44c0,.12.04.36.36.36h5.2c.28,0,.4-.16.4-.4Zm25.65-10.32h-4.64c0-3.52-1.24-3.88-3.72-3.88-2.8,0-3.96.48-3.96,10.68s1.2,10.68,3.96,10.68,3.68-.72,3.68-4v-2.08c0-.4-.16-.64-.56-.64h-3.12v-4.56h8.32c.08,1.16.16,2.36.16,3.6,0,10.64-1.96,12.28-8.48,12.28-7.08,0-8.52-2.16-8.52-15.28,0-11.6,1.44-15.24,8.6-15.24,5.96,0,7.76,1.44,8.28,8.44Zm16.5,16.8v4.56h-14.12v-29.24h14.12v4.16h-8.56c-.52,0-1,.56-1,1.04v7.88c0,.48.4,1,.92,1h7.04v4.56h-7c-.56,0-.96.48-.96,1.08v3.96c0,.44.24,1,.92,1h8.64Zm19.51-17.76v3.6c0,.32-.24.6-.6.6h-3.56c-.36,0-.6-.28-.6-.6v-3.6c0-.32.24-.6.6-.6h3.56c.36,0,.6.28.6.6Zm0,18.16v3.56c0,.36-.24.6-.6.6h-3.56c-.36,0-.6-.24-.6-.6v-3.56c0-.36.24-.6.6-.6h3.56c.36,0,.6.24.6.6Zm26.45-4.04h4.68c-.48,7.6-2.52,8.92-8.36,8.92-7.08,0-8.52-2.16-8.52-15.28,0-11.6,1.44-15.24,8.6-15.24,5.96,0,7.76,1.44,8.28,8.44h-4.64c0-3.52-1.24-3.88-3.72-3.88-2.8,0-3.96.48-3.96,10.68s1.2,10.68,3.96,10.68,3.68-.8,3.68-4.32Zm23.15-21v29.2h-4.56v-9.8c0-.48-.16-.8-.72-.8h-5.24c-.36,0-.72.4-.72.8v9.8h-4.92v-29.2h4.92v13.4c0,.4.28.76.64.76h5.32c.44,0,.72-.24.72-.84v-13.32h4.56Zm15.35,0l6.44,29.2h-4.76l-1.48-6.56c-.04-.32-.28-.44-.56-.44h-6.76c-.24,0-.52.16-.56.36l-1.44,6.68h-4.6l6.72-29.24h7Zm-.72,18.16l-2.84-12.4c-.04-.08-.08-.12-.16-.12s-.16.04-.16.12l-2.8,12.44c0,.12.04.36.36.36h5.2c.28,0,.4-.16.4-.4Zm20.13-.52l6,11.56h-4.88l-5.72-11c-.08-.2-.2-.32-.44-.32h-.88c-.2,0-.36.16-.36.36v10.96h-4.48v-29.2h8.16c6.32,0,8.6,2.44,8.6,9.08,0,5.4-1.84,7.84-6,8.56Zm1.44-8.56c0-3.44-.48-4.88-5.24-4.88h-1.88c-.4,0-.6.12-.6.48v8.4c0,.24.12.48.44.48h2.04c4.36,0,5.24-1.2,5.24-4.48Zm23.46-1.24h-4.64c0-3.52-1.24-3.88-3.72-3.88-2.8,0-3.96.48-3.96,10.68s1.2,10.68,3.96,10.68,3.68-.72,3.68-4v-2.08c0-.4-.16-.64-.56-.64h-3.12v-4.56h8.32c.08,1.16.16,2.36.16,3.6,0,10.64-1.96,12.28-8.48,12.28-7.08,0-8.52-2.16-8.52-15.28,0-11.6,1.44-15.24,8.6-15.24,5.96,0,7.76,1.44,8.28,8.44Zm9.62-14.16h4.16l-3.16,5.04h-2.52l1.52-5.04Zm6.88,30.96v4.56h-14.12v-29.24h14.12v4.24h-8.56c-.52,0-1,.56-1,1.04v7.8c0,.48.4,1,.92,1h7.04v4.56h-7c-.56,0-.96.48-.96,1.08v3.96c0,.44.24,1,.92,1h8.64Zm16.8,0v4.56h-14.12v-29.24h14.12v4.16h-8.56c-.52,0-1,.56-1,1.04v7.88c0,.48.4,1,.92,1h7.04v4.56h-7c-.56,0-.96.48-.96,1.08v3.96c0,.44.24,1,.92,1h8.64Zm29.79-9.96c0,11.16-3.28,14.52-8.56,14.52h-8.2v-29.2h8.2c4.96,0,8.56,1.96,8.56,14.68Zm-4.56,0c0-7.32-.44-10.48-5.2-10.48h-1.92c-.32,0-.52.16-.52.48v19.8c0,.28.16.44.4.44h2.04c4.36,0,5.2-3.76,5.2-10.24Zm21.06,9.96v4.56h-14.12v-29.24h14.12v4.16h-8.56c-.52,0-1,.56-1,1.04v7.88c0,.48.4,1,.92,1h7.04v4.56h-7c-.56,0-.96.48-.96,1.08v3.96c0,.44.24,1,.92,1h8.64Zm24.63-3.64h4.68c-.48,7.6-2.52,8.92-8.36,8.92-7.08,0-8.52-2.16-8.52-15.28,0-11.6,1.44-15.24,8.6-15.24,5.96,0,7.76,1.44,8.28,8.44h-4.64c0-3.52-1.24-3.88-3.72-3.88-2.8,0-3.96.48-3.96,10.68s1.2,10.68,3.96,10.68,3.68-.8,3.68-4.32Zm23.87-6.36c0,13.52-1.4,15.28-8.6,15.28s-8.52-2.16-8.52-15.28c0-11.6,1.44-15.24,8.6-15.24,7.52,0,8.52,2.32,8.52,15.24Zm-4.6,0c0-10.52-.72-10.68-4-10.68-2.88,0-3.96.48-3.96,10.68s1.04,10.68,3.96,10.68,4-.68,4-10.68Zm26.66-14.68v29.28h-4.56v-10.16c0-.32-.16-.48-.32-.48-.12,0-.28.12-.32.32l-2.92,10.32h-2.92l-3.08-10.2c-.08-.32-.24-.48-.36-.48-.16,0-.32.24-.32.64v10.04h-4.56v-29.28h4.56l4.72,16.76c.12.48.36.72.6.72.2,0,.44-.24.56-.72l4.36-16.76h4.56Zm22.66,0v29.28h-4.56v-10.16c0-.32-.16-.48-.32-.48-.12,0-.28.12-.32.32l-2.92,10.32h-2.92l-3.08-10.2c-.08-.32-.24-.48-.36-.48-.16,0-.32.24-.32.64v10.04h-4.56v-29.28h4.56l4.72,16.76c.12.48.36.72.6.72.2,0,.44-.24.56-.72l4.36-16.76h4.56Zm19.86,0v15.6c0,12.56-1.6,14.36-8.6,14.36s-8.52-2.08-8.52-14.36v-15.6h4.56v15.68c0,8.92,1.12,9.68,3.96,9.68s4-.6,4-9.68v-15.68h4.6Zm19.62.04v29.2h-4.56l-7.52-17.36c-.04-.08-.12-.12-.16-.12-.08,0-.16.04-.16.16v17.32h-4.56v-29.2h4.56l7.52,17.56c.04.08.12.16.2.16.04,0,.12-.08.12-.16v-17.56h4.56Zm8.32,2.08c0,1.48-1.2,2.64-2.68,2.64s-2.64-1.16-2.64-2.64,1.2-2.64,2.64-2.64,2.68,1.16,2.68,2.64Zm-.4,4.32v22.8h-4.56v-22.8h4.56Zm15.04,14.6h4.68c-.48,7.6-2.52,8.92-8.36,8.92-7.08,0-8.52-2.16-8.52-15.28,0-11.6,1.44-15.24,8.6-15.24,5.96,0,7.76,1.44,8.28,8.44h-4.64c0-3.52-1.24-3.88-3.72-3.88-2.8,0-3.96.48-3.96,10.68s1.2,10.68,3.96,10.68,3.68-.8,3.68-4.32Zm19.36-21l6.44,29.2h-4.76l-1.48-6.56c-.04-.32-.28-.44-.56-.44h-6.76c-.24,0-.52.16-.56.36l-1.44,6.68h-4.6l6.72-29.24h7Zm-.72,18.16l-2.84-12.4c-.04-.08-.08-.12-.16-.12s-.16.04-.16.12l-2.8,12.44c0,.12.04.36.36.36h5.2c.28,0,.4-.16.4-.4Zm21.97-18.2v4.24h-5.2c-.64,0-.88.6-.88,1v24h-4.56v-24.04c0-.56-.24-.96-.76-.96h-5.32v-4.24h16.72Zm6.78,2.12c0,1.48-1.2,2.64-2.68,2.64s-2.64-1.16-2.64-2.64,1.2-2.64,2.64-2.64,2.68,1.16,2.68,2.64Zm-.4,4.32v22.8h-4.56v-22.8h4.56Zm20.08,8.24c0,13.52-1.4,15.28-8.6,15.28s-8.52-2.16-8.52-15.28c0-11.6,1.44-15.24,8.6-15.24,7.52,0,8.52,2.32,8.52,15.24Zm-4.6,0c0-10.52-.72-10.68-4-10.68-2.88,0-3.96.48-3.96,10.68s1.04,10.68,3.96,10.68,4-.68,4-10.68Zm24.22-14.64v29.2h-4.56l-7.52-17.36c-.04-.08-.12-.12-.16-.12-.08,0-.16.04-.16.16v17.32h-4.56v-29.2h4.56l7.52,17.56c.04.08.12.16.2.16.04,0,.12-.08.12-.16v-17.56h4.56Zm23.94,15.72v2c0,.36-.24.6-.6.6h-8.68c-.36,0-.6-.24-.6-.6v-2c0-.32.24-.6.6-.6h8.68c.36,0,.6.28.6.6Zm-547.35,57.4v4.08h-15.04v-29.2h4.88v23.8c0,.8.56,1.32,1.44,1.32h8.72Zm8.44-27.04v3.6c0,.4-.24,1.16-.68,1.92l-2.2,3.8h-1.32l1.32-5.08-1.28-.04c-.36,0-.6-.28-.6-.6v-3.6c0-.32.24-.6.6-.6h3.56c.36,0,.6.28.6.6Zm16.16,1.92l6.44,29.2h-4.76l-1.48-6.56c-.04-.32-.28-.44-.56-.44h-6.76c-.24,0-.52.16-.56.36l-1.44,6.68h-4.6l6.72-29.24h7Zm-.72,18.16l-2.84-12.4c-.04-.08-.08-.12-.16-.12s-.16.04-.16.12l-2.8,12.44c0,.12.04.36.36.36h5.2c.28,0,.4-.16.4-.4Zm21.97-18.2v4.24h-5.2c-.64,0-.88.6-.88,1v24h-4.56v-24.04c0-.56-.24-.96-.76-.96h-5.32v-4.24h16.72Zm15.7,24.68v4.56h-14.12v-29.24h14.12v4.16h-8.56c-.52,0-1,.56-1,1.04v7.88c0,.48.4,1,.92,1h7.04v4.56h-7c-.56,0-.96.48-.96,1.08v3.96c0,.44.24,1,.92,1h8.64Zm17.09.48v4.08h-15.04v-29.2h4.88v23.8c0,.8.56,1.32,1.44,1.32h8.72Zm7.32-23.04c0,1.48-1.2,2.64-2.68,2.64s-2.64-1.16-2.64-2.64,1.2-2.64,2.64-2.64,2.68,1.16,2.68,2.64Zm-.4,4.32v22.8h-4.56v-22.8h4.56Zm17.4,18.24v4.56h-14.12v-29.24h14.12v4.16h-8.56c-.52,0-1,.56-1,1.04v7.88c0,.48.4,1,.92,1h7.04v4.56h-7c-.56,0-.96.48-.96,1.08v3.96c0,.44.24,1,.92,1h8.64Zm13.17-7l6,11.56h-4.88l-5.72-11c-.08-.2-.2-.32-.44-.32h-.88c-.2,0-.36.16-.36.36v10.96h-4.48v-29.2h8.16c6.32,0,8.6,2.44,8.6,9.08,0,5.4-1.84,7.84-6,8.56Zm1.44-8.56c0-3.44-.48-4.88-5.24-4.88h-1.88c-.4,0-.6.12-.6.48v8.4c0,.24.12.48.44.48h2.04c4.36,0,5.24-1.2,5.24-4.48Zm34.56,5.6c0,11.16-3.28,14.52-8.56,14.52h-8.2v-29.2h8.2c4.96,0,8.56,1.96,8.56,14.68Zm-4.56,0c0-7.32-.44-10.48-5.2-10.48h-1.92c-.32,0-.52.16-.52.48v19.8c0,.28.16.44.4.44h2.04c4.36,0,5.2-3.76,5.2-10.24Zm21.06,9.96v4.56h-14.12v-29.24h14.12v4.16h-8.56c-.52,0-1,.56-1,1.04v7.88c0,.48.4,1,.92,1h7.04v4.56h-7c-.56,0-.96.48-.96,1.08v3.96c0,.44.24,1,.92,1h8.64Zm29.79-9.96c0,11.16-3.28,14.52-8.56,14.52h-8.2v-29.2h8.2c4.96,0,8.56,1.96,8.56,14.68Zm-4.56,0c0-7.32-.44-10.48-5.2-10.48h-1.92c-.32,0-.52.16-.52.48v19.8c0,.28.16.44.4.44h2.04c4.36,0,5.2-3.76,5.2-10.24Zm23.74-.04c0,13.52-1.4,15.28-8.6,15.28s-8.52-2.16-8.52-15.28c0-11.6,1.44-15.24,8.6-15.24,7.52,0,8.52,2.32,8.52,15.24Zm-4.6,0c0-10.52-.72-10.68-4-10.68-2.88,0-3.96.48-3.96,10.68s1.04,10.68,3.96,10.68,4-.68,4-10.68Zm18.1,3l6,11.56h-4.88l-5.72-11c-.08-.2-.2-.32-.44-.32h-.88c-.2,0-.36.16-.36.36v10.96h-4.48v-29.2h8.16c6.32,0,8.6,2.44,8.6,9.08,0,5.4-1.84,7.84-6,8.56Zm1.44-8.56c0-3.44-.48-4.88-5.24-4.88h-1.88c-.4,0-.6.12-.6.48v8.4c0,.24.12.48.44.48h2.04c4.36,0,5.24-1.2,5.24-4.48Zm23.7-9.12v15.6c0,12.56-1.6,14.36-8.6,14.36s-8.52-2.08-8.52-14.36v-15.6h4.56v15.68c0,8.92,1.12,9.68,3.96,9.68s4-.6,4-9.68v-15.68h4.6Zm13.5,17.68l6,11.56h-4.88l-5.72-11c-.08-.2-.2-.32-.44-.32h-.88c-.2,0-.36.16-.36.36v10.96h-4.48v-29.2h8.16c6.32,0,8.6,2.44,8.6,9.08,0,5.4-1.84,7.84-6,8.56Zm1.44-8.56c0-3.44-.48-4.88-5.24-4.88h-1.88c-.4,0-.6.12-.6.48v8.4c0,.24.12.48.44.48h2.04c4.36,0,5.24-1.2,5.24-4.48Zm20.97,15.56v4.56h-14.12v-29.24h14.12v4.16h-8.56c-.52,0-1,.56-1,1.04v7.88c0,.48.4,1,.92,1h7.04v4.56h-7c-.56,0-.96.48-.96,1.08v3.96c0,.44.24,1,.92,1h8.64Zm-290.21,38.04c0,11.16-3.28,14.52-8.56,14.52h-8.2v-29.2h8.2c4.96,0,8.56,1.96,8.56,14.68Zm-4.56,0c0-7.32-.44-10.48-5.2-10.48h-1.92c-.32,0-.52.16-.52.48v19.8c0,.28.16.44.4.44h2.04c4.36,0,5.2-3.76,5.2-10.24Zm14.18-21h4.16l-3.16,5.04h-2.52l1.52-5.04Zm6.88,30.96v4.56h-14.12v-29.24h14.12v4.24h-8.56c-.52,0-1,.56-1,1.04v7.8c0,.48.4,1,.92,1h7.04v4.56h-7c-.56,0-.96.48-.96,1.08v3.96c0,.44.24,1,.92,1h8.64Zm14.44-3.64h4.68c-.48,7.6-2.52,8.92-8.36,8.92-7.08,0-8.52-2.16-8.52-15.28,0-11.6,1.44-15.24,8.6-15.24,5.96,0,7.76,1.44,8.28,8.44h-4.64c0-3.52-1.24-3.88-3.72-3.88-2.8,0-3.96.48-3.96,10.68s1.2,10.68,3.96,10.68,3.68-.8,3.68-4.32Zm13.71,4.04v3.56c0,.36-.24.6-.6.6h-3.56c-.36,0-.6-.24-.6-.6v-3.56c0-.36.24-.6.6-.6h3.56c.36,0,.6.24.6.6Zm25.05-9.32v2c0,.36-.24.6-.6.6h-8.68c-.36,0-.6-.24-.6-.6v-2c0-.32.24-.6.6-.6h8.68c.36,0,.6.28.6.6Zm32.25-9.32c0,5.6-1.12,7.92-6.64,11.36l-4.12,2.56c-1.56.96-2.48,2.04-2.48,3.68v1.28h6.84c1.2,0,1.64-.64,1.64-1.8v-1.6h4.2v7.32h-17.32v-6.36c0-2.12,1.28-4.36,4.44-6.44l2.88-1.88c4.8-3.12,5.56-4.64,5.56-6.6,0-1.52-.28-3.8-3.92-3.8-4.32,0-4.12,3.08-4.12,4.96v.68h-4.52c0-4.88.36-10.12,8.92-10.12,7.52,0,8.64,3.24,8.64,6.76Zm19.67-1.12v18c0,5.56-3.2,6.44-8.24,6.44-6.84,0-8.32-1.6-8.32-6.44v-18c0-3.76,2.12-5.56,8.36-5.56,5.4,0,8.2,1.8,8.2,5.56Zm-4.6,15.36v-11.12c0-4.16-.68-5.32-3.56-5.32-3.2,0-3.72.88-3.72,5.32v11.12c0,3.64,1.16,4.52,3.68,4.52s3.6-1.48,3.6-4.52Zm25.87-14.24c0,5.6-1.12,7.92-6.64,11.36l-4.12,2.56c-1.56.96-2.48,2.04-2.48,3.68v1.28h6.84c1.2,0,1.64-.64,1.64-1.8v-1.6h4.2v7.32h-17.32v-6.36c0-2.12,1.28-4.36,4.44-6.44l2.88-1.88c4.8-3.12,5.56-4.64,5.56-6.6,0-1.52-.28-3.8-3.92-3.8-4.32,0-4.12,3.08-4.12,4.96v.68h-4.52c0-4.88.36-10.12,8.92-10.12,7.52,0,8.64,3.24,8.64,6.76Zm9.99-6.4v29.2h-4.56v-23.48h-2.52c-.68,0-.96-.64-.96-1.28,0-.52.32-1.04.96-1.12,3.16-.44,3.84-2.84,3.84-3.32h3.24Z"/>
</svg>