<?xml version="1.0" encoding="utf-8"?>
<!-- Generator: Adobe Illustrator 27.6.1, SVG Export Plug-In . SVG Version: 6.00 Build 0)  -->
<svg version="1.1"
	 id="svg2" xmlns:dc="http://purl.org/dc/elements/1.1/" xmlns:cc="http://creativecommons.org/ns#" xmlns:sodipodi="http://sodipodi.sourceforge.net/DTD/sodipodi-0.dtd" xmlns:rdf="http://www.w3.org/1999/02/22-rdf-syntax-ns#" xmlns:inkscape="http://www.inkscape.org/namespaces/inkscape" xmlns:svg="http://www.w3.org/2000/svg" inkscape:version="0.48.4 r9939" sodipodi:docname="javascript.svg"
	 xmlns="http://www.w3.org/2000/svg" xmlns:xlink="http://www.w3.org/1999/xlink" x="0px" y="0px" viewBox="0 0 378.3 409.6"
	 style="enable-background:new 0 0 378.3 409.6;" xml:space="preserve">
<style type="text/css">
	.st0{fill:#131313;}
	.st1{fill:#D6BA32;}
	.st2{fill:#FFDA3E;}
	.st3{fill:#EBEBEB;}
</style>
<sodipodi:namedview  bordercolor="#666666" borderopacity="1.0" fit-margin-bottom="0" fit-margin-left="0" fit-margin-right="0" fit-margin-top="0" id="base" inkscape:current-layer="layer1" inkscape:cx="50.16802" inkscape:cy="19.624571" inkscape:document-units="px" inkscape:pageopacity="0.0" inkscape:pageshadow="2" inkscape:window-height="764" inkscape:window-maximized="0" inkscape:window-width="1026" inkscape:window-x="220" inkscape:window-y="220" inkscape:zoom="0.77995601" pagecolor="#ffffff" showgrid="false">
	</sodipodi:namedview>
<g id="layer1" transform="translate(-326.59295,-168.33349)" inkscape:groupmode="layer" inkscape:label="Layer 1">
	<g id="g8487" transform="translate(-202.57553,-38.463711)">
		<path id="path3664" inkscape:connector-curvature="0" class="st0" d="M536,209c8.3,0.1,16.7,0.1,25.1,0.1c-0.7,14.9,2.2,30.4-2,45
			c-5.4,10.4-19,8.4-28.8,8.6c-0.4-3.3-0.8-6.6-1.1-9.9c5.6-0.5,11.7,0.6,16.9-2.2c3.3-10.3,1.8-21.4,1-32.1
			c-2.9,0.1-8.5,0.1-11.4,0.2C535.8,216.3,535.9,211.4,536,209L536,209z"/>
		<path id="path3666" inkscape:connector-curvature="0" class="st0" d="M703,213.1c9.8-7.6,22.7-4.5,33.7-1.5
			c0,2.9-0.1,8.7-0.1,11.5c-8.5-3.4-24.6-10.8-26.7,3.2c8,2.4,16.5,3.9,23.7,8.2c7.7,6.3,5.5,20.6-3.3,24.9
			c-10.1,6-22.1,2.7-32.8,0.6c-0.6-4.4-1.2-8.9-1.8-13.3c9,4,27.2,13.3,29.9-1.8c-9-3.4-20.2-3.9-26.8-11.7
			C695.9,226.6,696.4,217.4,703,213.1L703,213.1z"/>
		<path id="path3668" inkscape:connector-curvature="0" class="st0" d="M882.4,210.9c3.8,0,7.6,0,11.5,0c0.1,3.7,0.2,7.3,0.4,11
			c2.9,0,8.8,0.1,11.7,0.1c0.1,2.2,0.2,6.7,0.2,8.9c-3,0-9-0.1-11.9-0.2c0.2,7.4-1.8,15.5,2,22.4c2.8,0.3,8.4,0.8,11.2,1.1
			c-0.3,13.7-15.9,7.5-24.1,5.3c-0.7-8.3-1.1-16.7-1.1-25c-2.1-3-4.2-5.9-6.3-8.9c1.6-1.5,4.8-4.4,6.4-5.8
			C882.3,217.6,882.3,213.1,882.4,210.9L882.4,210.9z"/>
		<path id="path3670" inkscape:connector-curvature="0" class="st0" d="M571.2,222.3c10.6-0.6,25.4-4.5,32,6.5
			c2.4,10.8,0.9,22.1,1.2,33.1c-4.7-0.4-9.5-0.9-14.2-1.3c-5.4,0.5-11.7,4.4-16.7,0.9c-8.2-4-8.4-18.6,0.3-22.1
			c6.3-2.6,13.2-3,19.8-4.6c-6.3-6.5-15.1-4-23-3.2C570.8,229.2,571.1,224.6,571.2,222.3 M581.5,244.6c-0.4,3.1-0.7,6.3-1,9.5
			c3.6-0.2,7.2-0.4,10.8-0.6c0.3-3.4,0.6-6.8,0.8-10.2C588.6,243.7,585.1,244.2,581.5,244.6z"/>
		<path id="path3672" inkscape:connector-curvature="0" class="st0" d="M609.3,221.2c3.1,0.6,9.4,1.8,12.5,2.5
			c3.3,7.5,5.5,15.4,8.7,23c2.7-8.1,5.1-16.3,7.5-24.5c3.1-0.1,9.4-0.2,12.5-0.2c-4.4,13.9-9.3,27.7-14.9,41.2
			c-4.3-0.6-8.5-1.5-12.6-2.7C617.1,247.9,613.3,234.5,609.3,221.2L609.3,221.2z"/>
		<path id="path3674" inkscape:connector-curvature="0" class="st0" d="M654.5,231.5c0.9-3.1,1.9-6.2,3.1-9.2
			c10.1-1.5,23.7-3.6,30.6,5.8c2.4,11.2,0.9,22.8,1.1,34.2c-4.8-0.6-9.5-1.3-14.2-1.9c-8.5,4.5-22.7,2.9-22.5-9.1
			c-1.6-14.2,16.1-14.4,25.8-16.3C672.6,227.3,662.5,231.4,654.5,231.5 M666.3,244.9c-0.4,2.9-0.7,5.9-1,8.8
			c3.6,0.1,7.1,0.2,10.7,0.3c0.3-3.6,0.6-7.2,1-10.8C673.4,243.7,669.8,244.3,666.3,244.9L666.3,244.9z"/>
		<path id="path3676" inkscape:connector-curvature="0" class="st0" d="M741.3,242.1c-1-17.6,21.4-26.9,34.9-17.5
			c0.3,2.5,0.9,7.5,1.2,10c-6.2-1.9-12.5-6.4-19.1-3.4c-7,6.7-5.5,23.6,6.3,22.6c3.3-1,9.8-3.1,13.1-4.2c-0.6,2.8-1.7,8.4-2.3,11.1
			C761.4,267.5,740.2,259.7,741.3,242.1L741.3,242.1z"/>
		<path id="path3678" inkscape:connector-curvature="0" class="st0" d="M782.8,221c4.9,1.3,9.8,2.6,14.7,4c3.7-1.3,7.4-2.6,11.1-4
			c0.2,3.1,0.6,9.3,0.7,12.5c-4.7,0.2-9.3,0.5-13.9,0.7c-0.3,9.3-0.4,18.6-0.5,27.9c-3,0-9.2,0.1-12.2,0.1
			C782.5,248.5,782.5,234.8,782.8,221L782.8,221z"/>
		<path id="path3680" inkscape:connector-curvature="0" class="st0" d="M835.5,221.9c9,2,18,1.4,26.9-0.4c14,2.9,14.3,22.7,9,33.1
			c-4.4,9-15.2,8.1-23.6,7.7c0.1,4.7,0.1,9.4,0.2,14.2c-3.1,0-9.4-0.1-12.6-0.2C835.5,258.2,835.5,240,835.5,221.9 M848.2,231.5
			c-0.1,7.6-0.2,15.1-0.1,22.7c4-1.1,9.2-0.3,12.3-3.8c2.3-6.2,0.5-12.8,0-19.2C856.3,231.3,852.2,231.4,848.2,231.5L848.2,231.5z"
			/>
		<g id="g3688" transform="matrix(1.25,0,0,1.25,-2.5065195,174.1722)">
			<path id="path3690" inkscape:connector-curvature="0" class="st0" d="M653.4,38.3c2.3,0,6.9,0,9.2,0c0.2,10.7,0.2,21.4,0,32.1
				c-2.3,0-6.9,0-9.2,0C653.3,59.7,653.3,49,653.4,38.3z"/>
		</g>
		<g id="g3768" transform="matrix(1.25,0,0,1.25,-2.5065195,174.1722)">
			<path id="path3770" inkscape:connector-curvature="0" class="st1" d="M460.9,91.2c25.9-1.1,51.8,0.3,77.7-0.1
				c28.6-0.9,57.1-0.2,85.7-0.1c22.7,0.1,45.4-0.1,68,0.1c-7.1,78.7-14.3,157.4-20.9,236.2c-30.4,8.6-60.8,17.2-91.2,25.7
				c-3.9,1.6-7.9,0.1-11.6-0.9c-28.9-8.3-57.8-16.5-86.7-24.5C474.3,248.9,467.3,170.1,460.9,91.2 M577.1,111.8
				c-1.1,38.8-0.2,77.6-0.5,116.5c0.3,35.5-0.5,71,0.4,106.5c25.5-6,50.7-13.4,75.9-20.7c6.3-67.4,12.5-134.8,17.8-202.3
				C639.6,111.5,608.3,111.8,577.1,111.8 M544.6,263.4c-15-4.1-29.8-8.8-45-12.1c-0.4,9-0.3,18.1,0.8,27
				c22.3,5.4,44.1,12.6,66.4,17.9c0.2-51.4-0.1-102.8,0.1-154.3c-7.3-0.2-14.5-0.3-21.8-0.4C544.1,182.1,544.9,222.8,544.6,263.4
				L544.6,263.4z"/>
		</g>
		<g id="g3796" transform="matrix(1.25,0,0,1.25,-2.5065195,174.1722)">
			<path id="path3798" inkscape:connector-curvature="0" class="st2" d="M577.1,111.8c31.2,0.1,62.5-0.3,93.7,0
				c-5.3,67.5-11.5,134.9-17.8,202.3c-25.2,7.3-50.4,14.7-75.9,20.7c-0.9-35.5-0.1-71-0.4-106.5C576.9,189.4,576,150.6,577.1,111.8
				 M585.8,142c0.1,33.4,0.1,66.9,0,100.3c15.3-2.5,30.5-5.3,45.7-8.1c-0.2,7.8-0.5,15.6-0.9,23.4c-14.8,3.9-29.6,8-44.5,11.7
				c-0.2,9-0.3,18-0.2,27c18.8-4.2,37.2-9.5,55.9-14.2c2.3-1.1,6.8-1,6.6-4.6c2.3-24,3.7-48.2,5.8-72.3c-15.4,1.3-30.7,3.9-46.2,4.9
				c-0.1-13.7-0.2-27.3,0.1-41c16.2,0,32.5,0,48.7,0c1-9.1,1.9-18.2,2.6-27.4C635,141.8,610.4,141.5,585.8,142L585.8,142z"/>
		</g>
		<path id="path3806" inkscape:connector-curvature="0" class="st3" d="M678.2,503.4c0.4-50.8-0.6-101.6,0.5-152.3
			c9.1,0.2,18.2,0.3,27.2,0.6c-0.2,64.3,0.1,128.6-0.1,192.8c-27.9-6.7-55.1-15.6-83-22.4c-1.3-11.2-1.5-22.5-0.9-33.8
			C641,492.4,659.5,498.3,678.2,503.4z"/>
	</g>
	<rect x="610.5" y="168.3" class="st0" width="14" height="10.1"/>
</g>
</svg>
