<?xml version="1.0" encoding="UTF-8"?>
<svg id="Calque_1" data-name="Calque 1" xmlns="http://www.w3.org/2000/svg" xmlns:xlink="http://www.w3.org/1999/xlink" viewBox="0 0 595.28 595.28">
  <defs>
    <style>
      .cls-1, .cls-2 {
        fill: none;
      }

      .cls-3 {
        fill: url(#Dégradé_sans_nom_12);
      }

      .cls-4 {
        fill: url(#Dégradé_sans_nom_3);
      }

      .cls-5 {
        fill: url(#Dégradé_sans_nom_4);
      }

      .cls-6 {
        fill: url(#Dégradé_sans_nom_9);
      }

      .cls-2 {
        clip-path: url(#clippath);
      }
    </style>
    <linearGradient id="Dégradé_sans_nom_12" data-name="Dégradé sans nom 12" x1="189.77" y1="298.56" x2="524.35" y2="298.56" gradientUnits="userSpaceOnUse">
      <stop offset="0" stop-color="#ee705f"/>
      <stop offset="1" stop-color="#ec624c"/>
    </linearGradient>
    <linearGradient id="Dégradé_sans_nom_9" data-name="Dégradé sans nom 9" x1="14.1" y1="341.62" x2="347.85" y2="341.62" gradientUnits="userSpaceOnUse">
      <stop offset="0" stop-color="#f6bed8"/>
      <stop offset="1" stop-color="#f4abb9"/>
    </linearGradient>
    <clipPath id="clippath">
      <path class="cls-1" d="m187.77,127.53v342.07h338.58V127.53H187.77Zm158.71,84.56c-1.66.36-3.32.73-4.99,1.14-38.68,9.58-55.98,25.77-63.36,40.55l.3-3.01h-3.34l-48.9,115.01c-5.16-5.21-9.83-10.9-13.98-17.03l64-149.35h71.65s-1.37,12.68-1.37,12.68Z"/>
    </clipPath>
    <linearGradient id="Dégradé_sans_nom_4" data-name="Dégradé sans nom 4" x1="89.96" y1="194.24" x2="196.57" y2="194.24" gradientUnits="userSpaceOnUse">
      <stop offset="0" stop-color="#f6bed8"/>
      <stop offset="1" stop-color="#ec624c"/>
    </linearGradient>
    <linearGradient id="Dégradé_sans_nom_3" data-name="Dégradé sans nom 3" x1="467.19" y1="298.56" x2="572.4" y2="298.56" gradientUnits="userSpaceOnUse">
      <stop offset="0" stop-color="#f6bed8"/>
      <stop offset="1" stop-color="#ec624c"/>
    </linearGradient>
  </defs>
  <g>
    <path class="cls-3" d="m522.28,357.06c7.94,32.09-6.72,67.94-47.85,78.12-18.95,4.69-42.99,4.66-62.93-12.5-6.01,21.28-25.34,34.35-54.92,41.67-18.49,4.58-33.31,4.1-45.66-.2l-16.64-67.22c4.8,1.57,9.75,1.73,16.68.01,6.93-1.72,9.31-5.99,7.37-13.79l-31.46-127.06,88.73-21.97,14.39,58.11c4.16-1.03,7.75-2.38,11.34-3.73,20.75-9.28,28.09-27.2,23.47-45.85-8.48-34.26-43.8-40.24-83.55-30.4-43.44,10.75-77.47,35.75-67.49,76.08,2.79,11.27,9.14,23.05,19.82,30.53l-48.59,61.27c-24.21-16.56-42.53-41.02-51.22-76.15-20.4-82.4,39.61-145.12,126.49-166.63,85.5-21.17,169.11-.44,187.36,73.28,10.95,44.23-10.51,80.38-48.32,98.03,25.39,1.54,54.4,13.69,62.99,48.38Zm-81.66-6.94c-2.9-11.71-14.07-17.23-28.4-13.68-3.24.8-6.83,2.15-10.42,3.5l8.27,33.39c1.29,5.2,7.83,5.89,14.31,4.28,13.4-3.32,19.57-14.05,16.24-27.49Z"/>
    <path class="cls-6" d="m14.1,483.83l5.34-25.48,30.71-236.19.45-22.76h40.77c21.35,0,40.03,14.36,45.52,35l46.32,174.25h3.34s89.66-209.25,89.66-209.25h71.65s-2.45,22.76-2.45,22.76l-4.44,235.98,1.56,25.69h-73.65s2.67-25.48,2.67-25.48l3.56-174.17,3.34-33.41h-3.34s-95.46,224.49-95.46,224.49h-45.61s-65.19-226.59-65.19-226.59h-3.34s-25.37,209.67-25.37,209.67l-1.11,25.48H14.1Z"/>
    <g class="cls-2">
      <path class="cls-3" d="m522.28,357.06c7.94,32.09-6.72,67.94-47.85,78.12-18.95,4.69-42.99,4.66-62.93-12.5-6.01,21.28-25.34,34.35-54.92,41.67-18.49,4.58-33.31,4.1-45.66-.2l-16.64-67.22c4.8,1.57,9.75,1.73,16.68.01,6.93-1.72,9.31-5.99,7.37-13.79l-31.46-127.06,88.73-21.97,14.39,58.11c4.16-1.03,7.75-2.38,11.34-3.73,20.75-9.28,28.09-27.2,23.47-45.85-8.48-34.26-43.8-40.24-83.55-30.4-43.44,10.75-77.47,35.75-67.49,76.08,2.79,11.27,9.14,23.05,19.82,30.53l-48.59,61.27c-24.21-16.56-42.53-41.02-51.22-76.15-20.4-82.4,39.61-145.12,126.49-166.63,85.5-21.17,169.11-.44,187.36,73.28,10.95,44.23-10.51,80.38-48.32,98.03,25.39,1.54,54.4,13.69,62.99,48.38Zm-81.66-6.94c-2.9-11.71-14.07-17.23-28.4-13.68-3.24.8-6.83,2.15-10.42,3.5l8.27,33.39c1.29,5.2,7.83,5.89,14.31,4.28,13.4-3.32,19.57-14.05,16.24-27.49Z"/>
    </g>
  </g>
  <path class="cls-5" d="m143.27,247.55h0c0-29.44-23.87-53.31-53.31-53.31h0c29.44,0,53.31-23.87,53.31-53.31h0c0,29.44,23.87,53.31,53.31,53.31h0c-29.44,0-53.31,23.87-53.31,53.31Z"/>
  <path class="cls-4" d="m528.42,351.16h0c-4.76-29.05-32.18-48.74-61.23-43.98h0c29.05-4.76,48.74-32.18,43.98-61.23h0c4.76,29.05,32.18,48.74,61.23,43.98h0c-29.05,4.76-48.74,32.18-43.98,61.23Z"/>
</svg>