<?xml version="1.0" encoding="utf-8"?>
<!-- Generator: Adobe Illustrator 27.2.0, SVG Export Plug-In . SVG Version: 6.00 Build 0)  -->
<svg version="1.1" id="Calque_1" xmlns="http://www.w3.org/2000/svg" xmlns:xlink="http://www.w3.org/1999/xlink" x="0px" y="0px"
	 viewBox="0 0 994.4 994.4" style="enable-background:new 0 0 994.4 994.4;" xml:space="preserve">
<style type="text/css">
	.st0{fill:url(#SVGID_1_);}
	.st1{fill:url(#SVGID_00000034806462245612028450000007961541089195896749_);}
	.st2{clip-path:url(#SVGID_00000093155540560691977390000000016023891221692071_);}
	.st3{fill:url(#SVGID_00000115500906432175529270000000976425091985420700_);}
	.st4{fill:url(#SVGID_00000018918934435058840090000015682760821784031398_);}
	.st5{fill:url(#SVGID_00000129915488084024356460000004364508930756772025_);}
</style>
<g>
	<g>
		
			<linearGradient id="SVGID_1_" gradientUnits="userSpaceOnUse" x1="368.8483" y1="114.4091" x2="819.2127" y2="114.4091" gradientTransform="matrix(1 0 0 -1 0 595)">
			<stop  offset="0" style="stop-color:#EE705F"/>
			<stop  offset="1" style="stop-color:#EC624C"/>
		</linearGradient>
		<path class="st0" d="M816.4,559.4c10.7,43.2-9,91.5-64.4,105.2c-25.5,6.3-57.9,6.3-84.7-16.8c-8.1,28.6-34.1,46.2-73.9,56.1
			c-24.9,6.2-44.8,5.5-61.5-0.3L509.5,613c6.5,2.1,13.1,2.3,22.5,0c9.3-2.3,12.5-8.1,9.9-18.6l-42.3-171L619,393.9l19.4,78.2
			c5.6-1.4,10.4-3.2,15.3-5c27.9-12.5,37.8-36.6,31.6-61.7c-11.4-46.1-59-54.2-112.5-40.9c-58.5,14.5-104.3,48.1-90.8,102.4
			c3.8,15.2,12.3,31,26.7,41.1l-65.4,82.5c-32.6-22.3-57.2-55.2-68.9-102.5C346.8,377,427.5,292.6,544.5,263.6
			c115.1-28.5,227.6-0.6,252.2,98.6c14.7,59.5-14.1,108.2-65,132C765.8,496.3,804.9,512.6,816.4,559.4L816.4,559.4z M706.5,550
			c-3.9-15.8-18.9-23.2-38.2-18.4c-4.4,1.1-9.2,2.9-14,4.7l11.1,44.9c1.7,7,10.5,7.9,19.3,5.8C702.7,582.6,711,568.1,706.5,550
			L706.5,550z"/>
		
			<linearGradient id="SVGID_00000157294932353637072690000003999634923885606279_" gradientUnits="userSpaceOnUse" x1="132.384" y1="56.4297" x2="581.6445" y2="56.4297" gradientTransform="matrix(1 0 0 -1 0 595)">
			<stop  offset="0" style="stop-color:#F6BED8"/>
			<stop  offset="1" style="stop-color:#F4ABB9"/>
		</linearGradient>
		<path style="fill:url(#SVGID_00000157294932353637072690000003999634923885606279_);" d="M132.4,730l7.2-34.3l41.3-317.9l0.6-30.6
			h54.9c28.7,0,53.9,19.3,61.3,47.1L360,628.8h4.5l120.7-281.7h96.4l-3.3,30.6l-6,317.6l2.1,34.6h-99.1l3.6-34.3l4.8-234.4l4.5-45
			h-4.5L355.2,718.5h-61.4l-87.7-305h-4.5l-34.1,282.2l-1.5,34.3L132.4,730L132.4,730z"/>
		<g>
			<defs>
				<path id="SVGID_00000129176479847562228410000003998795424253461888_" d="M366.2,250.4v460.4h455.7V250.4H366.2z M579.8,364.2
					c-2.2,0.5-4.5,1-6.7,1.5c-52.1,12.9-75.4,34.7-85.3,54.6l0.4-4.1h-4.5l-65.8,154.8c-6.9-7-13.2-14.7-18.8-22.9l86.1-201h96.4
					L579.8,364.2L579.8,364.2z"/>
			</defs>
			<clipPath id="SVGID_00000080905582562565071010000018037346672949374394_">
				<use xlink:href="#SVGID_00000129176479847562228410000003998795424253461888_"  style="overflow:visible;"/>
			</clipPath>
			<g style="clip-path:url(#SVGID_00000080905582562565071010000018037346672949374394_);">
				
					<linearGradient id="SVGID_00000029765303716339849940000015410662711949556405_" gradientUnits="userSpaceOnUse" x1="368.8483" y1="114.4091" x2="819.2127" y2="114.4091" gradientTransform="matrix(1 0 0 -1 0 595)">
					<stop  offset="0" style="stop-color:#EE705F"/>
					<stop  offset="1" style="stop-color:#EC624C"/>
				</linearGradient>
				<path style="fill:url(#SVGID_00000029765303716339849940000015410662711949556405_);" d="M816.4,559.4
					c10.7,43.2-9,91.5-64.4,105.2c-25.5,6.3-57.9,6.3-84.7-16.8c-8.1,28.6-34.1,46.2-73.9,56.1c-24.9,6.2-44.8,5.5-61.5-0.3
					L509.5,613c6.5,2.1,13.1,2.3,22.5,0c9.3-2.3,12.5-8.1,9.9-18.6l-42.3-171L619,393.9l19.4,78.2c5.6-1.4,10.4-3.2,15.3-5
					c27.9-12.5,37.8-36.6,31.6-61.7c-11.4-46.1-59-54.2-112.5-40.9c-58.5,14.5-104.3,48.1-90.8,102.4c3.8,15.2,12.3,31,26.7,41.1
					l-65.4,82.5c-32.6-22.3-57.2-55.2-68.9-102.5C346.8,377,427.5,292.6,544.5,263.6c115.1-28.5,227.6-0.6,252.2,98.6
					c14.7,59.5-14.1,108.2-65,132C765.8,496.3,804.9,512.6,816.4,559.4L816.4,559.4z M706.5,550c-3.9-15.8-18.9-23.2-38.2-18.4
					c-4.4,1.1-9.2,2.9-14,4.7l11.1,44.9c1.7,7,10.5,7.9,19.3,5.8C702.7,582.6,711,568.1,706.5,550L706.5,550z"/>
			</g>
		</g>
	</g>
	
		<linearGradient id="SVGID_00000047757552769895574960000013359849441171670201_" gradientUnits="userSpaceOnUse" x1="234.4961" y1="254.8051" x2="378.0128" y2="254.8051" gradientTransform="matrix(1 0 0 -1 0 595)">
		<stop  offset="0" style="stop-color:#F6BED8"/>
		<stop  offset="1" style="stop-color:#EC624C"/>
	</linearGradient>
	<path style="fill:url(#SVGID_00000047757552769895574960000013359849441171670201_);" d="M306.3,412L306.3,412
		c0-39.6-32.1-71.8-71.8-71.8l0,0c39.6,0,71.8-32.1,71.8-71.8l0,0c0,39.6,32.1,71.8,71.8,71.8l0,0
		C338.4,340.2,306.3,372.3,306.3,412z"/>
	
		<linearGradient id="SVGID_00000059304896617070554380000008558914730714486152_" gradientUnits="userSpaceOnUse" x1="742.2697" y1="114.391" x2="883.8885" y2="114.391" gradientTransform="matrix(1 0 0 -1 0 595)">
		<stop  offset="0" style="stop-color:#F6BED8"/>
		<stop  offset="1" style="stop-color:#EC624C"/>
	</linearGradient>
	<path style="fill:url(#SVGID_00000059304896617070554380000008558914730714486152_);" d="M824.7,551.4L824.7,551.4
		c-6.4-39.1-43.3-65.6-82.4-59.2l0,0c39.1-6.4,65.6-43.3,59.2-82.4l0,0c6.4,39.1,43.3,65.6,82.4,59.2l0,0
		C844.8,475.4,818.3,512.3,824.7,551.4z"/>
</g>
</svg>
