<?xml version="1.0" encoding="UTF-8"?>
<svg id="Calque_1" data-name="Calque 1" xmlns="http://www.w3.org/2000/svg" xmlns:xlink="http://www.w3.org/1999/xlink" viewBox="0 0 1000.39 993.86">
  <defs>
    <style>
      .cls-1, .cls-2 {
        fill: none;
      }

      .cls-3 {
        fill: #ffd93d;
      }

      .cls-4 {
        fill: #ff6b6b;
      }

      .cls-5 {
        fill: #6bcb77;
      }

      .cls-2 {
        clip-path: url(#clippath);
      }
    </style>
    <clipPath id="clippath">
      <rect class="cls-1" x="0" y="-.02" width="1000.35" height="1000.35" rx="500.18" ry="500.18"/>
    </clipPath>
  </defs>
  <g class="cls-2">
    <path class="cls-4" d="m422.01,183.62c1.81,1.71,3.57,3.35,5.31,5.03.8.78,1.6,1.58,2.3,2.45,2.94,3.63,5.95,7.23,8.08,11.43,2.77,5.44,4.34,11.22,4.87,17.29.87,10.06-.71,19.73-4.71,29.01-2.04,4.74-4.55,9.2-7.99,13.06-1.59,1.78-3.35,3.42-5.07,5.09-2.42,2.36-5.27,4.14-8.12,5.93-4.87,3.05-10.22,4.72-15.83,5.67-5.05.85-10.14,1.09-15.25,1.25-8.2.26-16.29-.71-24.32-2.13-6.81-1.2-13.46-3.14-19.87-5.77-4.54-1.86-9.05-3.81-13.47-5.94-3.89-1.87-7.69-3.95-11.43-6.09-4.05-2.32-7.99-4.85-12.01-7.23-.56-.33-1.31-.4-1.98-.48-2.24-.28-3.98-1.31-5.16-3.25-.1-.17-.18-.37-.3-.53-1.76-2.3-1.66-4.9-1.32-7.57.62-4.85,1.89-9.55,3.41-14.17,6.85-20.78,13.8-41.53,20.67-62.3,3.1-9.37,6.15-18.77,9.14-28.17,1.55-4.87,3-9.78,4.39-14.7.81-2.85,1.43-5.74,2.09-8.63.72-3.11,1.47-6.2,3.26-8.91.81-1.23,1.59-2.49,2.38-3.74,1.28-2.02,3.07-3.55,4.95-4.97,3.57-2.71,7.61-4.41,11.94-5.52,4.89-1.25,9.84-1.04,14.79-.81,4.31.2,8.52,1.02,12.69,2.14,4.08,1.1,8.09,2.4,11.99,4.01,5.5,2.26,10.76,4.99,15.76,8.22,3.96,2.55,7.8,5.28,11.23,8.51,5.21,4.91,9.91,10.26,13.66,16.4,1.11,1.82,2.25,3.63,3.2,5.53,1.74,3.46,3.42,6.97,4.18,10.8.82,4.11,1.22,8.24.2,12.39-.88,3.62-2.5,6.9-4.56,9.97-2.06,3.06-4.5,5.78-7.17,8.32-3.45,3.29-7.35,5.92-11.52,8.18-.13.07-.26.16-.42.25v-.02Zm-55.53-75.86c-.08.12-.14.19-.18.26-1.24,2.3-2.99,4.12-5.23,5.48-.21.13-.34.45-.42.71-.8,2.92-1.5,5.87-2.39,8.76-2.16,7.08-4.33,14.16-6.62,21.21-4.11,12.66-8.31,25.29-12.49,37.92-5.12,15.49-10.28,30.96-15.37,46.46-.62,1.88-.9,3.88-1.32,5.83-.03.13.05.36.16.45.95.75,1.88,1.52,2.88,2.2,6,4.12,12.27,7.81,18.75,11.11,1.14.58,2.25,1.23,3.38,1.84.08.04.16.08.24.11,4.18,1.81,8.31,3.71,12.54,5.39,2.75,1.09,5.59,1.97,8.45,2.73,2.9.77,5.81,1.52,8.83,1.75,3.92.3,7.83.9,11.75,1.15,4.17.26,8.36.25,12.54-.14,2.24-.21,3.95-1.24,5.39-2.89,2.2-2.52,3.65-5.47,4.99-8.48,2.13-4.8,3.29-9.85,3.82-15.06.47-4.6.19-9.17-.9-13.66-.91-3.76-2.76-7.15-4.78-10.39-2.88-4.62-6.64-8.5-10.71-12.08-3.18-2.8-6.66-5.2-10.31-7.36-.96-.57-1.93-1.2-2.98-1.5-2.73-.79-5.57-1.26-8.26-2.15-3.74-1.24-7.42-2.69-11.07-4.18-2.75-1.12-5.24-2.67-7.44-4.73-1.86-1.74-1.87-4.37-1.04-6.25.75-1.7,1.93-3.13,3.21-4.44,2.59-2.65,5.78-4.28,9.35-5.18,4.3-1.08,8.51-.67,12.7.67,6.64,2.12,13.03,4.81,19.2,8.05.82.43,1.67.62,2.59.54,3.25-.29,6.18-1.32,8.64-3.57,4.22-3.85,5.95-8.58,5.1-14.21-.6-4.01-2.54-7.55-4.33-11.09-2.11-4.2-5.11-7.83-8.16-11.36-4.99-5.78-10.96-10.45-17.44-14.44-4.3-2.65-8.86-4.81-13.58-6.6-3.08-1.17-6.22-2.17-9.51-2.85h.02Z"/>
    <path class="cls-5" d="m765.07,125.35c.57-.1,1.07-.21,1.57-.29,4.62-.66,8.16,2.4,8.67,6.89.16,1.37.22,2.78.07,4.14-.29,2.62.77,4.79,1.97,6.95,3.17,5.75,7.27,10.83,11.43,15.86,3.51,4.25,7.06,8.46,10.71,12.58,5.01,5.65,10.12,11.2,15.22,16.77,2.69,2.94,5.42,5.84,8.18,8.71,5.35,5.56,10.74,11.09,16.12,16.61,2.8,2.87,5.62,5.73,8.47,8.56,5.46,5.41,10.94,10.8,16.45,16.17,3.01,2.94,6.05,5.86,9.15,8.7,4.58,4.2,9.23,8.33,13.85,12.49.06.06.14.09.28.19.07-.23.16-.43.19-.63.87-5.27,1.79-10.54,2.58-15.82.54-3.63.99-7.28,1.33-10.93.69-7.43,1.3-14.86,1.88-22.3.27-3.46.4-6.93.61-10.4.43-7.41.87-14.82,1.3-22.23.21-3.58.37-7.16.6-10.74.46-7.33.94-14.66,1.44-21.99.75-11.08,1.62-22.14,3.17-33.14.5-3.58,1.02-7.16,1.7-10.7.79-4.1,1.61-8.21,2.7-12.24,1.18-4.39,2.44-8.78,4.11-13,2.03-5.12,5.58-9.17,9.95-12.56,1.94-1.51,4.03-2.54,6.32-3.24.99-.3,2.06-.42,3.09-.45,1.97-.06,3.68.72,5.15,1.99,2.7,2.33,4.71,5.21,6.25,8.38,2.82,5.82,5.61,11.66,8.23,17.57,3.02,6.82,5.87,13.72,8.71,20.62,1.73,4.21,3.34,8.48,4.92,12.75,3.02,8.18,6.01,16.37,8.94,24.58,1.72,4.83,3.29,9.71,4.94,14.56,1.71,5.04,3.44,10.07,5.16,15.11,1.58,4.64,3.11,9.29,4.71,13.92,2.13,6.15,4.29,12.3,6.49,18.43,1.2,3.33,2.5,6.62,3.78,9.91.37.94.84,1.85,1.29,2.76.1.2.22.42.4.54,2.48,1.59,3.13,4.1,3.22,6.76.15,4.23-1.2,8.07-3.42,11.62-1.62,2.59-3.67,4.78-5.94,6.83-1.86,1.69-3.87,3.03-6.23,3.85-1.43.49-2.91.76-4.42.53-2.76-.41-5.08-1.7-6.42-4.18-1.43-2.66-2.68-5.42-3.86-8.21-1.33-3.15-2.54-6.35-3.73-9.56-1.28-3.45-2.5-6.92-3.69-10.41-2.03-5.92-4.03-11.85-6.01-17.79-1.64-4.92-3.19-9.86-4.83-14.78-1.22-3.65-2.49-7.29-3.78-10.91-1.86-5.22-3.75-10.44-5.67-15.65-1.77-4.81-3.56-9.61-5.42-14.38-2.81-7.22-5.68-14.42-8.56-21.61-1.04-2.6-2.16-5.16-3.26-7.74-.08-.2-.23-.37-.44-.71-.34,3.45-.69,6.73-.97,10.02-.34,3.99-.67,7.99-.93,11.99-.47,7.27-.94,14.55-1.33,21.82-.59,10.91-1.11,21.83-1.69,32.74-.19,3.58-.41,7.16-.71,10.73-.6,7.4-1.22,14.81-1.92,22.21-.35,3.65-.81,7.3-1.38,10.92-1.2,7.5-2.46,15-3.79,22.48-.69,3.89-1.56,7.76-2.39,11.63-.66,3.07-1.4,6.11-2.09,9.17-.08.35-.12.74-.06,1.09.59,3.09-.15,6.02-1.07,8.9-2.04,6.4-6.09,11.14-12.1,14.13-1.2.6-2.53.99-3.83,1.34-1.26.33-2.53.18-3.69-.52-1.86-1.12-3.88-2.04-5.57-3.37-6.58-5.21-13.09-10.5-19.55-15.86-3.04-2.52-5.95-5.21-8.83-7.92-5.85-5.5-11.65-11.05-17.44-16.61-2.75-2.64-5.45-5.34-8.14-8.04-5.63-5.64-11.26-11.29-16.86-16.97-2.78-2.82-5.5-5.68-8.21-8.57-5.2-5.55-10.38-11.11-15.54-16.69-1.9-2.05-3.72-4.18-5.57-6.28-.2-.23-.41-.45-.8-.62.08.39.16.77.25,1.16,1.33,5.88,2.66,11.77,3.98,17.65.88,3.92,1.77,7.84,2.63,11.77.99,4.53,1.94,9.08,2.91,13.61,1.18,5.51,2.38,11.02,3.53,16.53.93,4.46,1.84,8.92,2.71,13.4.63,3.27,1.33,6.55,1.72,9.85.6,5.05,1.02,10.12-.47,15.14-1.59,5.37-4.62,9.77-8.73,13.49-2.08,1.89-4.45,3.24-7.24,3.85-3.95.87-7.63-1.24-8.94-5.13-.54-1.61-.32-3.24-.37-4.87-.08-2.3-.17-4.63-.53-6.9-.86-5.39-1.83-10.77-2.84-16.14-.73-3.86-1.58-7.7-2.39-11.55-.95-4.49-1.89-8.97-2.88-13.45-1.07-4.84-2.17-9.67-3.28-14.5-1.29-5.66-2.59-11.32-3.91-16.97-1.17-5.02-2.38-10.02-3.57-15.04-1.02-4.3-2.01-8.6-3.04-12.9-1.3-5.4-2.62-10.79-3.93-16.18-1.74-7.16-3.5-14.3-5.2-21.47-.72-3.02-1.36-6.07-1.89-9.13-1.06-6.08-.32-11.96,1.96-17.71,1.95-4.91,4.85-9.06,8.95-12.35,2.58-2.07,5.52-3.33,8.88-3.28,3.01.04,5.3,1.28,6.36,4.28.04.1.1.2.19.35l-.02.03Z"/>
    <path class="cls-5" d="m832.64,521.92c4.98-1.67,9.54-3.47,14.23-4.71,12-3.17,24.06-2.65,36.16-.21,18.27,3.68,34.24,11.53,46.89,25.44,8.48,9.32,13.97,20.16,15.87,32.75,1.28,8.5.06,16.71-3.51,24.34-12.65,27.06-33.18,44.84-62.72,51.08-17.17,3.63-34.57,3-51.82.38-9.36-1.42-18.65-3.52-27.83-5.83-4.25-1.07-8.39-3.01-12.22-5.21-5.54-3.18-6.75-7.3-4.44-13.28,3.25-8.42,9.29-13.99,17.9-16.68,1.39-.44,2.92-.55,4.39-.62,3.14-.17,5.68,1.06,6.6,4.15.71,2.36,2.23,3.41,4.32,3.91,8.79,2.11,17.5,4.68,26.4,6.1,12.76,2.03,25.66,2.7,38.6,1.29,11.88-1.29,21.98-5.59,29.26-15.6,5.71-7.85,6.95-16.28,3.95-25.3-4.04-12.15-11.83-21.58-22.46-28.47-12.3-7.98-25.89-12.44-40.61-13.06-3.09-.13-6.23.22-9.31.65-5.67.81-9.79,3.73-12.27,9.08-2.84,6.13-7.45,10.76-13.54,13.63-2.46,1.16-5.38,1.76-8.11,1.85-4.5.15-7.05-2.11-7.32-6.63-.26-4.27.08-8.59.43-12.87,1.29-15.68,2.62-31.35,4.08-47.01,1.7-18.32,3.52-36.63,5.36-54.93.63-6.27,3.32-11.62,7.68-16.18,1.32-1.38,2.45-2.97,3.51-4.56,4.99-7.44,11.67-12.12,20.77-12.91,2.95-.26,5.92-.65,8.87-.61,27.16.43,54.31.92,81.47,1.47,2.04.04,4.17.38,6.09,1.05,5.24,1.82,7.1,5.88,4.83,10.94-2.78,6.2-7.37,10.84-13.81,13.15-3.15,1.13-6.63,1.81-9.97,1.86-8.9.12-17.81-.2-26.71-.36-15.14-.27-30.28-.56-45.41-.83-.89-.02-1.78-.04-2.67.03-3.92.28-5.65,1.88-6.02,5.71-1.22,12.55-2.41,25.11-3.58,37.67-1.14,12.26-2.24,24.53-3.35,36.8-.07.72,0,1.46,0,2.55l.02-.02Z"/>
    <path class="cls-4" d="m898.61,781.56c3.58-.32,6.65-.93,9.73-1.49,7.54-1.38,15.08-2.77,22.63-4.16,4.71-.87,9.42-1.77,14.14-2.62,1.35-.24,2.72-.32,4.08-.51,3.93-.56,7.26.83,10.29,3.17,2.36,1.83,3.31,4.29,3.22,7.19-.1,3.23-1.23,6.18-2.74,8.96-3,5.51-6.9,10.2-12.56,13.19-2.54,1.34-5.04,2.78-7.67,3.92-1.99.87-4.11,1.54-6.24,1.95-9.41,1.81-18.85,3.49-28.28,5.23-.65.12-1.27.34-2.09.56.03,1.06-.03,2,.08,2.92,1.69,13.6,2.46,27.27,3.43,40.93.72,10.1,1.68,20.2,2.79,30.26,1.06,9.68,3.05,19.2,5.65,28.58,3.15,11.37,8.42,21.65,15.98,30.72,2.1,2.52,4.39,4.88,6.65,7.26.84.88,1.83,1.62,2.84,2.51.63-.49,1.21-.84,1.67-1.31,9.33-9.49,17.93-19.56,25.47-30.57,4.42-6.45,10.81-10.4,18.48-12.01,4.2-.88,7.9.15,10.46,3.91,1.56,2.29,1.71,4.89,1.36,7.5-.41,3-1.23,5.93-2.78,8.54-2.44,4.12-4.78,8.33-7.61,12.17-7.72,10.49-16.18,20.37-25.36,29.62-5.31,5.35-11,10.29-17.02,14.82-5.34,4.03-11.33,6.55-18.01,7.44-4.1.54-7.96-.12-11.51-2.1-2.49-1.39-4.89-3.03-7.11-4.84-5.99-4.89-10.75-10.9-15.15-17.21-8.01-11.49-13.28-24.18-16.47-37.78-3.04-12.96-4.93-26.09-5.9-39.36-1.14-15.57-2.28-31.14-3.69-46.68-.78-8.59-2.1-17.12-3.19-25.68-.1-.78-.36-1.54-.57-2.4-.74.03-1.28-.03-1.78.08-8.93,2.07-17.86,4.16-26.79,6.24-1.75.41-3.29,1.2-4.81,2.17-3.75,2.37-7.81,3.96-12.36,3.84-5.68-.15-8.85-3.23-9.08-8.95-.18-4.36,1.1-8.39,3.19-12.16,3.54-6.39,8.67-11.23,14.84-15.02,5.29-3.24,11.02-5.49,16.99-7.08,4.76-1.27,9.57-2.35,14.35-3.55,1.05-.26,2.06-.63,3.25-1,.19-1.57.41-3.04.53-4.52.67-8.46,1.31-16.92,1.97-25.37.07-.95.14-1.92.39-2.84,3.31-11.98,10.75-20.08,22.69-23.81,1.53-.48,3.23-.62,4.85-.6,5.65.06,9.52,4.03,9.35,9.69-.13,4.24-.56,8.47-.87,12.7-.55,7.51-1.13,15.01-1.66,22.52-.11,1.49-.03,3-.04,5.02h0Z"/>
    <g>
      <g id="_" data-name=" ">
        <path class="cls-3" d="m458.1,848.39c.26-.07.53-.15.78-.25,4.84-1.74,7.09-6.48,5.36-11.27-26.16-72.5-44.44-147.45-54.34-222.75-.83-6.31-6.6-9.39-11.71-8.72-4.93.65-7.92,4.54-7.27,9.47,10.25,78,28.79,154.53,55.11,227.46,1.97,5.46,7.51,7.29,12.06,6.05h.01Z"/>
        <path class="cls-3" d="m509.64,913.07c-5.29-7.21-12.89-11.92-20.84-12.92-9.42-1.19-18.25,2.48-23.61,9.81-4.52,6.19-5.67,13.37-6.55,20.42-1.31,3.78-1.1,7.41.63,10.79,4.02,7.86,15.2,11.9,21.5,13.61,6.6,1.79,13.27,1.86,18.94.31,2.45-.67,4.72-1.64,6.71-2.9,5.07-3.21,8.34-8.23,9.48-14.52,1.48-8.21-.81-17.18-6.27-24.62v.02Zm-12.46,21.47c-.4,1.38-1.32,4.63-11.44,1.88-2.54-.69-5.2-1.5-7.45-2.75-.13-.08-.31-.22-.52-.37-.07-.05-.13-.1-.2-.14.07-.57.08-1.14.04-1.7.51-3.65,1.68-9.81,4.79-11.86,1.35-.89,3.1-1,5.36-.35,5.33,1.54,11.07,9.53,9.42,15.29Z"/>
      </g>
      <g id="_-2" data-name=" -2">
        <path class="cls-3" d="m703.59,641.05c-15.19-17.87-41.96-27.37-66.61-23.64-14.1,2.13-25.68,9.63-31.76,20.58-6.57,11.82-6.47,25.45.27,35.58,3.48,5.23,9.63,5.21,13.65,2.54,3.74-2.49,5.83-7.56,2.59-12.44-3.7-5.56-2.92-13.1,1.98-19.21,6.38-7.94,17.85-8.91,24.15-8.79,20.86.42,38.73,10.61,47.81,27.26,19.39,35.54,1.46,75.5-14.35,110.76-.88,1.96-1.75,3.9-2.6,5.82-9.93,22.3-20.55,48.43-20.92,76.43-.08,6.05,4.62,9.27,9.3,9.33h.13c4.62,0,9.52-3.22,9.6-9.25.35-27.43,11.75-52.74,22.78-77.22,10.83-24.04,22.02-48.9,23.29-76.3,1.08-23.35-5.96-45.74-19.3-61.43v-.02Z"/>
        <path class="cls-3" d="m679.98,927.89c-7.74-3.18-16.28-2.36-22.85,2.2-6.37,4.41-9.55,11.35-12.2,17.76-3.06,4.57-3.14,10.03-.23,15.44,5.29,9.81,19.07,17.48,31.14,17.48.35,0,.7,0,1.05-.02,8.7-.33,15.38-4.75,18.82-12.46,3.19-7.16,3.18-15.85-.02-23.85-3.08-7.69-8.81-13.72-15.71-16.55h0Zm-1.57,32.67c-.59,1.1-1.23,1.4-1.66,1.52-1.1.32-3.34.17-7.7-2.33-1.79-1.03-3.85-2.28-5.62-3.83-.27-.23-.54-.52-.82-.83.15-.41.26-.82.34-1.23,1.33-3.12,3.53-7.65,6.32-8.7,1.13-.43,2.43-.26,3.96.5,2.23,1.11,4.34,3.92,5.37,7.15.94,2.96.88,5.78-.18,7.75h-.01Z"/>
      </g>
    </g>
    <g id="_5" data-name=" 5">
      <path class="cls-3" d="m79.9,41.69c-8.51-6.68-22.49-8.86-31.64.26-7.49,7.47-8.95,19.58-3.72,30.85,4.56,9.82,13.41,17.44,25.61,22.03.67.25,1.36.5,2.05.73-.72,2.27-1.47,4.52-2.2,6.72-1.1,3.3-2.13,6.41-2.99,9.39-7.31,25.34-9,49.38-5.18,73.5.46,2.89,2.16,5.09,4.66,6.05.91.35,1.89.52,2.88.52,2.09,0,4.25-.75,5.99-2.16,2.55-2.06,3.71-5.11,3.2-8.35-2.36-14.85-2.51-28.92-.45-41.8,1.69-10.57,4.83-21.08,7.87-31.25.58-1.93,1.15-3.86,1.72-5.79.31-1.04.63-2.14.96-3.29,4.89.51,9.88.58,14.79.19,15.01-1.19,30.84-4.96,44.57-10.61,12.87-5.3,23.5-13.11,31.59-23.22,3.54-4.42,1.96-10.02-1.62-12.88-3.6-2.88-8.11-2.39-10.97,1.2h0c-11.84,14.8-27.96,20.99-48.53,25.75-7.8,1.8-16.97,3.15-25.98,2.68,2.08-14.06.89-29.91-12.62-40.53h0Zm-19.81,12.83c1.03-1.18,2.14-1.74,3.46-1.74.26,0,.52.02.79.06,3.88.6,8.4,5.22,10.04,8.98,2.26,5.19,2.55,11.02,1.8,17.06-4.09-1.63-7.91-3.92-11.26-7.04-3.59-3.35-9.49-11.98-4.83-17.32Z"/>
      <path class="cls-3" d="m146.55,327.67c-21.25,2.01-41.76-11-62.71-39.78-3.31-4.55-9.1-4.5-12.78-1.82-3.75,2.73-4.48,7.25-1.76,10.98,13.57,18.64,35.16,43.84,65.88,47.55,2.29.28,4.6.41,6.92.41,23.57,0,47.89-14.03,62.24-36.5,10.93-17.11,15.96-40.86,13.8-65.15-2.26-25.36-11.74-46.7-26.7-60.07-12.15-10.86-39.97-26.88-89.81-12.26-3,.88-5.13,3.06-5.84,5.99-.76,3.13.23,6.57,2.53,8.77,2.11,2.01,5.02,2.67,7.97,1.8,19.93-5.85,48.1-9.75,69.14,4.86,17.03,11.82,22.81,33.29,24.74,45.04,3.01,18.28,1.04,36.97-5.54,52.64-8.62,20.54-27.95,35.63-48.09,37.54h0Z"/>
    </g>
    <g id="M">
      <g>
        <path class="cls-4" d="m163.27,733.68c8.99,12.91,16,27.69,22.79,41.99,1.48,3.12,2.95,6.22,4.44,9.29,9.28,19.18,18,39.85,18.91,61.03.87,20.29-6.68,38.8-20.73,50.8-4.65,3.97-14.02,10.18-24.67,7.1-8.1-2.34-13.32-9.5-13.98-19.15-1.79-26.31,18.94-44.37,37.24-60.31l1.14-.99c3.11-2.71,3.38-6.79.65-9.92-2.67-3.06-7.69-4.25-11.48-.95l-2.88,2.5c-9.4,8.16-19.12,16.59-26.69,26.89-7.3,9.94-11.96,22.15-13.12,34.37-1.24,13.03,1.72,24.08,8.56,31.95,6.55,7.54,16.37,11.85,26.95,11.82,10.29-.03,20.56-4.44,29.72-12.75,7.62-6.92,14.21-16.3,18.56-26.4,8.43-19.58,8.21-43.09-.64-69.86-6.29-19.03-15.58-37.22-24.55-54.81-1.45-2.85-2.91-5.7-4.34-8.54-9.51-18.81-21.38-39.58-42.1-47.96-32.98-13.33-64.48,7.21-93.63,61.07-16.24,30.01-24.13,63.77-30.25,93.05l-1.08,5.18c-6.45,30.88-13.11,62.81-21.79,93.69-.73,2.6-.13,5.13,1.63,6.94,1.05,1.07,2.43,1.81,3.91,2.15,1.28.29,2.64.29,3.94-.04,2.68-.68,4.66-2.64,5.43-5.38,6.63-23.6,12.61-48.73,18.82-79.07l1.27-6.23c4.71-23.11,9.58-47.01,17.23-69.66,6.81-20.16,16.45-39.34,28.67-57.01,12.18-17.61,24.52-27.94,37.75-31.58,21.81-6,37.14,10.45,44.34,20.79h-.02Z"/>
        <path class="cls-4" d="m309.71,740.17c-24.2-16.18-54.01-6.26-73.84,8.42-3.98,2.94-3.89,8.02-1.52,11.23,2.48,3.35,6.69,4,10.01,1.55,11.69-8.65,34.51-21.33,55.98-9.01,18.95,10.88,27.43,33.29,30.8,45.69,5.05,18.59,6.24,39.69,3.72,66.41-2.24,23.84-7.23,46.95-14.03,74.3-1.46,5.89-2.96,11.78-4.46,17.66-5.42,21.3-11.02,43.32-14.93,65.38-.5,2.8.43,5.42,2.55,7.2,1.03.87,2.26,1.46,3.53,1.75,1.48.34,3.04.27,4.45-.24,2.38-.86,4.01-2.88,4.49-5.54,3.84-21.63,9.36-43.34,14.69-64.34,7.9-31.07,16.07-63.21,19.02-95.89,5.5-61.02-8.11-102.94-40.46-124.57h0Z"/>
      </g>
    </g>
    <g id="J">
      <path class="cls-4" d="m76.68,434.44c-5.82-2.19-9.41,2.11-11.51,6.85h0c-4.8,6.91,13,16.82,17.14,6.54,1.98-4.93-.58-11.5-5.63-13.4h0Zm-6.23,9.27v.02h0v-.02Zm6.43,1.99c-.88,1.63-2.73.6-3.78,0-.74-.42-1.48-.87-2.12-1.44-.13-.12-.31-.35-.48-.5.11-.24.18-.47.22-.7.73-1.76,1.82-4.04,4.03-3.08,1.76.76,3.1,3.92,2.13,5.71h0Z"/>
      <path class="cls-4" d="m26.05,553.61c-.48-1.59-1.81-2.86-3.39-3.23-1.44-.34-2.89.12-3.96,1.27-4.13,4.39-6.07,9.94-5.62,16.04.59,7.98,5.29,16.37,12.27,21.88,7.01,5.53,15.81,8.46,24.47,8.46,4.4,0,8.77-.76,12.85-2.31,8.07-3.07,14.48-8.97,18.54-17.04.74-1.47.66-3.09-.23-4.44-.92-1.4-2.55-2.25-4.14-2.16-1.44.08-2.66.92-3.35,2.3-3.54,7.05-9.06,11.79-15.94,13.73-5.74,1.61-11.95,1.38-17.98-.68-5.88-2.01-11.05-5.88-14.18-10.63-5.53-8.39-3.82-15.3-.37-18.96,1.11-1.18,1.49-2.72,1.04-4.22h0Z"/>
      <path class="cls-4" d="m86.55,502.29c5.93,3.41,12.31,4.02,17.5,1.68,6.22-2.81,9.82-9.71,8.97-17.18-.64-5.55-3.57-12.54-9.9-15.51-4.76-2.23-10.48-1.81-16.11,1.2-1.93,1.03-3.67,2.26-5.22,3.67-.37-3.87-.37-7.8-.37-11.32v-.56c0-2.81-2.28-4.32-4.42-4.32h0c-2.19,0-4.42,1.48-4.41,4.32,0,6.52,0,14.86,2.27,22.39-2.13,5.81-2.72,12.84-1.66,20.85.52,3.94,1.26,7.89,1.98,11.71.9,4.76,1.82,9.68,2.31,14.56,1.11,11.18,1.04,20.05-.21,27.9-.27,1.67.33,3.23,1.64,4.29.89.73,2,1.11,3.08,1.11.51,0,1.01-.09,1.48-.26,1.29-.49,2.16-1.63,2.4-3.11,1.9-11.89,1.63-25.29-.78-39.83-.39-2.36-.91-4.79-1.46-7.37-1.27-5.96-2.64-12.4-2.44-18.42,1.51,1.59,3.28,3,5.36,4.2h0Zm8.92-23.6c2.17-.3,4.04.3,5.56,1.76,3.06,2.94,4.67,9.28,2.17,13.05-2.89,4.35-8.25,2.84-9.83,2.27-4.56-1.65-7.38-4.91-9.12-8.94,2.2-3.58,6.94-7.55,11.23-8.14h0Z"/>
    </g>
    <g id="T">
      <path class="cls-5" d="m388.96,437.65c-11.95-3.67-24.01-9.87-35.86-18.43-3.11-2.25-6.49-.99-8.23,1.42-1.71,2.37-1.86,6.11,1.24,8.35,11.95,8.63,24.16,15.08,36.32,19.17,10.15,3.41,23.04,6.39,32.76-.92,7.98-6,11.76-19.2,4.3-30.89-5.97-9.35-16.62-16.97-29.95-21.47-11.67-3.94-24.68-5.05-36.64-3.15-13.3,2.12-24.6,7.8-32.68,16.44-9.63,10.28-15.43,23.22-19.4,33.35-3.47,8.82-6.52,17.94-9.47,26.76-1.7,5.09-3.47,10.34-5.28,15.48l-33.41,94.33c-1.27,3.59.94,6.57,3.68,7.57l.05.02c2.79.99,6.29.1,7.56-3.51l25.98-73.37,2.39-6.73c3.45-9.73,7.03-19.78,10.36-29.75l1.24-3.73c3.55-10.65,7.22-21.66,11.97-31.95,5.4-11.71,11.59-20.08,18.92-25.57,6.65-4.98,16.29-7.71,28.68-8.12,11.14-.36,22.42,2.29,31.78,7.46,16.05,8.88,16.66,17.66,16.18,21.03-.43,2.99-1.66,5.09-3.76,6.42-5.34,3.38-14.87,1-18.73-.19v-.02Z"/>
      <path class="cls-5" d="m244.29,381.09c-3.58-1.3-6.57.9-7.57,3.63-1.02,2.8-.16,6.33,3.46,7.65l59.54,21.69c3.58,1.3,6.57-.9,7.57-3.63s.16-6.33-3.46-7.65l-59.54-21.69Z"/>
    </g>
    <g id="E">
      <path class="cls-4" d="m576.81,264.88c-8.67,2.01-17.63,4.1-24.71,10.1-8.29,7.03-12.88,18.16-11.96,29.04.42,5.03,1.79,10,3.12,14.8.45,1.63.9,3.26,1.31,4.87l8.18,32.45c.44,1.75,1.43,2.98,2.65,3.74.01,0,.02.02.03.02,1.44,1.01,3.23,1.32,5.06.86,1.72-.43,2.94-1.4,3.71-2.59.98-1.33,1.44-3.09.92-5.15l-7.26-28.79c-.45-1.77-.95-3.6-1.44-5.37-3.09-11.15-6.28-22.67,1.65-31.88,5.06-5.88,13.05-7.7,20.78-9.47,1.53-.35,3.05-.7,4.53-1.07l68.75-17.33c3.93-.99,5.24-4.71,4.48-7.71-.77-3.07-3.63-5.66-7.6-4.66l-67.23,16.95c-1.63.41-3.29.8-4.96,1.18h-.01Z"/>
      <path class="cls-4" d="m591.12,456.19c-.99-3.93-4.71-5.24-7.71-4.48s-5.66,3.63-4.66,7.6c.38,1.51.74,3.04,1.1,4.57,2.26,9.61,4.61,19.56,12.32,26.85,9.04,8.54,21.31,11.41,34.56,8.07l80.68-20.34c3.93-.99,5.24-4.71,4.48-7.71s-3.63-5.66-7.6-4.66l-76.06,19.18c-7.45,1.88-14.49,3.65-21.66.14-9.69-4.76-11.99-14.54-14.42-24.9-.34-1.45-.68-2.89-1.04-4.31h0Z"/>
      <path class="cls-4" d="m551.46,448.31c9.45,3.05,18.82,3.52,26.92,1.47,3.4-.86,6.58-2.16,9.45-3.9,10.28-6.23,16.21-17.17,15.12-27.87-1.25-12.18-10.01-20.49-19.06-27.57,2.45-.64,4.86-1.27,7.21-1.92,21.18-5.87,42.49-11.1,60.56-15.45.02,0,.05-.01.07-.02,2.18-.55,3.78-2.04,4.39-4.11.67-2.27.04-4.85-1.6-6.57-1.53-1.61-3.69-2.22-5.94-1.68-19.94,4.8-41.38,10.08-63.04,16.14-2.13.6-4.33,1.18-6.57,1.78-2.58.69-5.21,1.39-7.86,2.14-11.21-8.28-22.6-15.72-33.94-22.16-2.02-1.15-4.3-1.16-6.23-.02-2.06,1.21-3.38,3.51-3.37,5.86.02,2.15,1.16,4.03,3.14,5.16,8.52,4.84,17.07,10.24,25.47,16.1-8.27,3.31-15.99,7.68-21.9,14.15-6.75,7.39-9.41,16.82-7.31,25.88,2.34,10.09,11.27,18.32,24.49,22.59h0Zm23.85-48.31c3.76,2.95,7.65,6,10.59,9.65,6.19,7.65,5.4,17.04-1.95,23.36-8.89,7.64-21.82,5.1-26.97,3.65-15.1-4.25-17.76-12.16-18-16.5-.38-6.9,4.41-12.05,8.5-15.16,6.12-4.65,13.43-7.76,21.1-10.25,1.7,1.3,3.37,2.59,4.99,3.88.57.45,1.15.91,1.73,1.36h.01Z"/>
    </g>
    <g id="U">
      <path class="cls-3" d="m558.83,169.57c2.51,4.97,6.82,9.51,11.82,12.47,1.88,1.11,3.84,2.05,5.87,2.82,8.5,3.22,18.15,3.41,27.3.41,18.83-6.16,29.13-24.85,35.99-40.45,9.34-21.22,16.65-42.82,22.57-61.16,8.93-27.66,16-53.31,21.64-78.41.68-3.04-.98-5.64-4.01-6.32-3.1-.7-6.83.88-7.69,4.72-8.68,38.65-20.24,77.04-34.37,114.1-.56,1.47-1.12,2.95-1.68,4.43-4.78,12.65-9.72,25.74-17.49,36.69-6.53,9.2-17.98,18-31.04,16.68,6.11-9.07,9.35-21.51.05-29.82-4.67-4.17-11.24-5.75-17.58-4.22-5.93,1.43-10.53,5.36-12.62,10.77-2.12,5.5-1.69,11.47,1.24,17.28h0Zm12.34-15.95c1.89-1.07,4.37-1.22,6.53-.4.08.03.15.06.23.09,1.11.46,3.07,1.59,3.73,4.03.92,3.38-.77,7.89-5.05,13.42-.2.26-.37.52-.53.79-3.02-1.95-5.4-4.48-6.77-7.27-1.79-3.64-1.74-8.6,1.86-10.65h0Z"/>
      <path class="cls-3" d="m562.5-40.76c-18.37,33.38-34.14,67.94-46.87,102.7l-.5,1.35c-5.73,15.63-11.65,31.79-14.29,48.47-2.62,16.53-1.13,29.92,4.56,40.96,7.03,13.64,19.96,24.58,36.42,30.81h.02c3.51,1.34,6.49-.8,7.5-3.48,1.04-2.75.23-6.23-3.31-7.57h-.02c-9.26-3.51-21.82-10.39-29.1-23.28-5.28-9.35-6.68-20.61-4.43-35.45,2.27-14.91,7.61-29.55,12.78-43.71l.94-2.58c5.92-16.27,12.5-32.5,19.54-48.24,8.12-18.15,17.06-36.12,26.58-53.42,1.1-1.99,1.05-4.26-.14-6.22-1.18-1.95-3.27-3.18-5.32-3.13-1.82.04-3.41,1.06-4.37,2.81v-.02Z"/>
    </g>
  </g>
</svg>